<?xml version="1.0" encoding="UTF-8"?>
<svg version="1.1" xmlns="http://www.w3.org/2000/svg" width="500" height="500">
<path d="M0 0 C0.73224792 -0.00029205 1.46449585 -0.00058411 2.21893311 -0.00088501 C4.62679101 0.00050258 7.03433517 0.01603661 9.44213867 0.03173828 C11.11650931 0.03547045 12.79088213 0.03831646 14.46525574 0.04031372 C18.86292598 0.04793415 23.26046321 0.06756894 27.65808105 0.08972168 C32.149233 0.1102144 36.64040653 0.11932276 41.1315918 0.12939453 C49.93699124 0.15081638 58.74228276 0.18493306 67.54760742 0.22705078 C67.54760742 0.88705078 67.54760742 1.54705078 67.54760742 2.22705078 C68.10448242 2.26830078 68.66135742 2.30955078 69.23510742 2.35205078 C72.77983106 3.69329756 74.33445037 6.23629801 76.54760742 9.22705078 C77.86301364 13.17326945 77.92420304 17.04252268 78.11010742 21.16455078 C78.15184082 22.08042969 78.19357422 22.99630859 78.23657227 23.93994141 C78.90277544 40.30950506 78.82856539 56.73079644 78.23510742 73.10205078 C78.21270996 73.94509766 78.1903125 74.78814453 78.16723633 75.65673828 C77.90650408 81.39520725 76.82483698 85.66516752 72.89135742 90.09033203 C64.04039318 97.04733994 52.34686111 95.38532061 41.59448242 95.39501953 C40.29488586 95.39834793 38.99528931 95.40167633 37.65631104 95.40510559 C34.92670864 95.4110426 32.19713768 95.41295079 29.4675293 95.41235352 C25.98549601 95.41225139 22.50366429 95.42598008 19.02167892 95.44312572 C15.67094386 95.45695507 12.32024562 95.4563346 8.96948242 95.45751953 C7.72769226 95.46470505 6.4859021 95.47189056 5.20648193 95.47929382 C-4.22286968 95.45439653 -10.4822142 94.87303481 -17.45239258 88.22705078 C-19.92452921 84.51884583 -19.71673896 82.6183001 -19.74291992 78.1887207 C-19.74963715 77.47615616 -19.75635437 76.76359161 -19.76327515 76.0294342 C-19.78228343 73.67205848 -19.786181 71.31496714 -19.78833008 68.95751953 C-19.79475708 67.31708153 -19.80148536 65.67664469 -19.8085022 64.03620911 C-19.82048275 60.59548283 -19.82418233 57.154857 -19.82299805 53.71411133 C-19.82279505 49.31234357 -19.85007365 44.91122283 -19.88454247 40.50960827 C-19.90682047 37.12003136 -19.91083529 33.73060979 -19.90977859 30.34096718 C-19.91213411 28.71870002 -19.92095489 27.09642855 -19.93644333 25.47423363 C-19.95611839 23.20022198 -19.95026022 20.92760018 -19.93823242 18.65356445 C-19.94108246 17.36133469 -19.9439325 16.06910492 -19.9468689 14.73771667 C-19.22866568 9.6386423 -16.48034478 5.44941255 -12.45239258 2.22705078 C-8.30358739 0.15655305 -4.54826206 -0.04786057 0 0 Z M-8.45239258 14.22705078 C-9.28068383 16.54995403 -9.28068383 16.54995403 -9.25317383 19.35595703 C-9.29909668 20.51756348 -9.34501953 21.67916992 -9.39233398 22.87597656 C-9.41554276 24.32628711 -9.43520972 25.77665633 -9.45239258 27.22705078 C-9.46784119 28.1056073 -9.48328979 28.98416382 -9.49920654 29.88934326 C-9.60464279 36.1975687 -9.63815945 42.50418883 -9.63769531 48.81323242 C-9.63990344 52.18111419 -9.65817636 55.5486789 -9.67700195 58.91650391 C-9.67993278 61.07079967 -9.68191965 63.22509698 -9.68286133 65.37939453 C-9.69004684 66.3794603 -9.69723236 67.37952606 -9.70463562 68.40989685 C-9.70210489 75.5338335 -9.70210489 75.5338335 -7.45239258 82.22705078 C-4.06808081 84.51901923 -1.01688304 84.49636195 2.99682617 84.53344727 C4.30498291 84.54943466 5.61313965 84.56542206 6.9609375 84.58189392 C8.38565684 84.58826945 9.81038087 84.59366256 11.23510742 84.59814453 C12.6995452 84.60711368 14.16398205 84.61623558 15.62841797 84.62550354 C18.69492824 84.64197603 21.76132952 84.64969086 24.82788086 84.65258789 C28.75580398 84.65798031 32.68270287 84.69570127 36.6103363 84.74133205 C39.63354231 84.77107842 42.65650045 84.77831084 45.67984009 84.77931404 C47.12794707 84.78351868 48.57605463 84.79596302 50.02401733 84.81683159 C52.04863207 84.84369692 54.07361756 84.83582315 56.09838867 84.82641602 C57.24992432 84.83148666 58.40145996 84.83655731 59.58789062 84.84178162 C62.69455824 84.45631168 62.69455824 84.45631168 64.91833496 82.08828735 C66.83433102 78.72352293 67.05416798 76.70389229 67.06518555 72.84790039 C67.07779419 71.57986069 67.09040283 70.31182098 67.10339355 69.00535583 C67.09623427 67.63002972 67.08803041 66.25470869 67.07885742 64.87939453 C67.08155388 63.46122471 67.08543758 62.0430567 67.0904541 60.62489319 C67.09634017 57.65835907 67.08781453 54.6923079 67.0690918 51.72583008 C67.0462809 47.9268989 67.05944297 44.12909683 67.08338165 40.33020687 C67.09784657 37.40389011 67.09323105 34.47784045 67.08287048 31.55151558 C67.08020615 30.15090361 67.08346272 28.75026722 67.0927887 27.34968376 C67.10296589 25.39206289 67.08469878 23.43435672 67.06518555 21.47680664 C67.06200317 20.36381699 67.0588208 19.25082733 67.05554199 18.10411072 C66.74132242 15.1569655 66.74132242 15.1569655 64.91734314 12.86779785 C61.81461516 10.71954486 59.87473747 10.72588586 56.11425781 10.7253418 C54.80932877 10.71596085 53.50439972 10.7065799 52.15992737 10.69691467 C50.73836614 10.70739408 49.31681123 10.71876324 47.89526367 10.73095703 C46.43322172 10.730802 44.97117936 10.72931234 43.50914001 10.72654724 C40.44666346 10.7251636 37.38465543 10.73771309 34.32226562 10.76049805 C30.40360629 10.78885804 26.48572673 10.78615201 22.56700993 10.77340794 C19.54802331 10.76644002 16.52921575 10.77425303 13.510252 10.78666496 C12.06581751 10.79117047 10.62136375 10.79152414 9.17692757 10.78759956 C7.15470325 10.78467744 5.13248292 10.80338989 3.11035156 10.82299805 C1.38637901 10.83110252 1.38637901 10.83110252 -0.37242126 10.83937073 C-3.80305088 11.2711886 -5.70950346 12.14958121 -8.45239258 14.22705078 Z " fill="#FAC31C" transform="translate(50.452392578125,194.77294921875)"/>
<path d="M0 0 C0.73224792 -0.00029205 1.46449585 -0.00058411 2.21893311 -0.00088501 C4.62679101 0.00050258 7.03433517 0.01603661 9.44213867 0.03173828 C11.11650931 0.03547045 12.79088213 0.03831646 14.46525574 0.04031372 C18.86292598 0.04793415 23.26046321 0.06756894 27.65808105 0.08972168 C32.149233 0.1102144 36.64040653 0.11932276 41.1315918 0.12939453 C49.93699124 0.15081638 58.74228276 0.18493306 67.54760742 0.22705078 C67.54760742 0.88705078 67.54760742 1.54705078 67.54760742 2.22705078 C68.10448242 2.26830078 68.66135742 2.30955078 69.23510742 2.35205078 C72.77983106 3.69329756 74.33445037 6.23629801 76.54760742 9.22705078 C77.86301364 13.17326945 77.92420304 17.04252268 78.11010742 21.16455078 C78.15184082 22.08042969 78.19357422 22.99630859 78.23657227 23.93994141 C78.90277544 40.30950506 78.82856539 56.73079644 78.23510742 73.10205078 C78.21270996 73.94509766 78.1903125 74.78814453 78.16723633 75.65673828 C77.94531489 80.5410182 77.12071288 83.93624222 74.54760742 88.22705078 C74.21760742 88.22705078 73.88760742 88.22705078 73.54760742 88.22705078 C73.34674299 84.51105887 73.39566372 83.45496633 75.54760742 80.22705078 C75.85295459 77.23453291 75.85295459 77.23453291 75.80639648 73.78369141 C75.80990112 73.13458298 75.81340576 72.48547455 75.8170166 71.81669617 C75.8258155 69.67212209 75.81999146 67.52787819 75.81323242 65.38330078 C75.81457961 63.89261817 75.81652059 62.40193599 75.81903076 60.91125488 C75.82197952 57.78747371 75.81769241 54.66380694 75.80834961 51.54003906 C75.79695514 47.53498478 75.80351595 43.53019856 75.81549454 39.52515411 C75.82271987 36.44710265 75.82042212 33.36911478 75.81523895 30.2910614 C75.81390432 28.81426461 75.81554368 27.33746206 75.82019806 25.860672 C75.82527443 23.79709567 75.81753788 21.73395409 75.80639648 19.67041016 C75.8048053 18.4958728 75.80321411 17.32133545 75.80157471 16.11120605 C75.76256829 13.02994985 75.76256829 13.02994985 73.54760742 10.22705078 C72.88760742 10.22705078 72.22760742 10.22705078 71.54760742 10.22705078 C69.68763433 14.19647023 69.27964107 17.39416243 69.22875977 21.76147461 C69.20889008 23.06244583 69.18902039 24.36341705 69.16854858 25.70381165 C69.15667391 27.11390005 69.14501095 28.52399025 69.13354492 29.93408203 C69.11482382 31.38426301 69.0952497 32.8344332 69.07485962 34.28459167 C69.02363173 38.09029774 68.98395628 41.89603908 68.94671631 45.7019043 C68.90661785 49.58993185 68.85555223 53.47781383 68.80541992 57.36572266 C68.70877138 64.98606532 68.62433148 72.60647869 68.54760742 80.22705078 C67.06260742 80.72205078 67.06260742 80.72205078 65.54760742 81.22705078 C65.55426926 80.40685959 65.56093109 79.5866684 65.5677948 78.74162292 C65.6278762 71.01659945 65.67356655 63.29168907 65.70304394 55.56649303 C65.71870798 51.59476451 65.73995941 47.62322885 65.77392578 43.65161133 C65.80649339 39.81961989 65.82445487 35.9878141 65.83223915 32.15569496 C65.83778738 30.69282419 65.84862167 29.22996372 65.86479759 27.76717186 C65.88653821 25.71996382 65.88957589 23.67352538 65.88818359 21.6262207 C65.89484543 20.46039963 65.90150726 19.29457855 65.90837097 18.09342957 C65.74710504 15.28078878 65.74710504 15.28078878 64.43774414 13.34838867 C61.59751983 11.66340414 59.25015402 11.86825662 55.96484375 11.88647461 C55.30116287 11.88603653 54.63748199 11.88559845 53.95368958 11.88514709 C51.76203903 11.88723559 49.57115542 11.91056811 47.37963867 11.93408203 C45.85935382 11.9396778 44.33906356 11.94394799 42.81877136 11.94694519 C38.81882777 11.95839554 34.81921136 11.98786406 30.81939697 12.02105713 C26.73730902 12.05175409 22.65516817 12.06544971 18.57299805 12.08056641 C10.56438441 12.11273383 2.55603663 12.16393218 -5.45239258 12.22705078 C-5.78239258 10.57705078 -6.11239258 8.92705078 -6.45239258 7.22705078 C-10.67140214 6.79093669 -10.67140214 6.79093669 -14.20239258 8.72705078 C-14.61489258 9.22205078 -15.02739258 9.71705078 -15.45239258 10.22705078 C-16.11239258 10.22705078 -16.77239258 10.22705078 -17.45239258 10.22705078 C-17.39122933 19.95421149 -17.31415805 29.68110282 -17.21667767 39.40797138 C-17.17191723 43.92438797 -17.1326738 48.44071316 -17.10595703 52.95727539 C-17.07998039 57.31462884 -17.03961852 61.67163166 -16.98920631 66.02876854 C-16.97249929 67.69252352 -16.96100895 69.3563392 -16.95477867 71.0201664 C-16.94517893 73.34772271 -16.91717111 75.67437421 -16.88476562 78.00170898 C-16.88620071 78.69222855 -16.8876358 79.38274811 -16.88911438 80.0941925 C-16.8329359 82.94020782 -16.79661677 84.77564825 -15.03865051 87.08097839 C-14.51518539 87.45918228 -13.99172028 87.83738617 -13.45239258 88.22705078 C-12.85426758 88.74267578 -12.25614258 89.25830078 -11.63989258 89.78955078 C-9.02716898 91.50648343 -6.4393453 92.34454202 -3.45239258 93.22705078 C-3.94739258 94.21705078 -3.94739258 94.21705078 -4.45239258 95.22705078 C-11.30702505 93.71903164 -15.45003722 91.23058382 -19.45239258 85.22705078 C-19.71981812 82.09733582 -19.71981812 82.09733582 -19.74291992 78.1887207 C-19.74963715 77.47615616 -19.75635437 76.76359161 -19.76327515 76.0294342 C-19.78228343 73.67205848 -19.786181 71.31496714 -19.78833008 68.95751953 C-19.79475708 67.31708153 -19.80148536 65.67664469 -19.8085022 64.03620911 C-19.82048275 60.59548283 -19.82418233 57.154857 -19.82299805 53.71411133 C-19.82279505 49.31234357 -19.85007365 44.91122283 -19.88454247 40.50960827 C-19.90682047 37.12003136 -19.91083529 33.73060979 -19.90977859 30.34096718 C-19.91213411 28.71870002 -19.92095489 27.09642855 -19.93644333 25.47423363 C-19.95611839 23.20022198 -19.95026022 20.92760018 -19.93823242 18.65356445 C-19.94108246 17.36133469 -19.9439325 16.06910492 -19.9468689 14.73771667 C-19.22866568 9.6386423 -16.48034478 5.44941255 -12.45239258 2.22705078 C-8.30358739 0.15655305 -4.54826206 -0.04786057 0 0 Z " fill="#F7C220" transform="translate(50.452392578125,194.77294921875)"/>
<path d="M0 0 C3.3125 0.85546875 3.3125 0.85546875 5.3125 2.10546875 C6.3125 3.85546875 6.3125 3.85546875 6.11328125 6.21484375 C5.15430638 9.37712187 3.91586556 10.63233458 1.5 12.85546875 C-1.50814017 15.7083846 -4.12705389 18.58869267 -6.6875 21.85546875 C-8.35416667 23.52213542 -10.02083333 25.18880208 -11.6875 26.85546875 C-13.66600172 28.96207735 -15.61256369 31.09744276 -17.5625 33.23046875 C-19.13385641 34.93114897 -20.70724294 36.62993393 -22.28076172 38.32861328 C-23.47934996 39.62954539 -24.66490963 40.94246138 -25.84765625 42.2578125 C-29.89836644 46.61121313 -29.89836644 46.61121313 -33.3125 47.66796875 C-36.27137747 46.65572119 -37.5844791 44.97643526 -39.42578125 42.5078125 C-40.81961583 40.59994385 -40.81961583 40.59994385 -43.375 38.23046875 C-45.4270395 36.12296872 -46.59101048 34.54685211 -47.6875 31.85546875 C-48.3475 31.85546875 -49.0075 31.85546875 -49.6875 31.85546875 C-50.90625 30.359375 -50.90625 30.359375 -52.1875 28.41796875 C-53.9740363 25.63015028 -53.9740363 25.63015028 -56.6875 23.85546875 C-55.48368552 21.36185304 -54.23321278 19.17403792 -52.6875 16.85546875 C-52.0275 16.85546875 -51.3675 16.85546875 -50.6875 16.85546875 C-50.6875 16.19546875 -50.6875 15.53546875 -50.6875 14.85546875 C-48.625 13.98046875 -48.625 13.98046875 -45.6875 13.85546875 C-40.0727739 17.22963907 -35.83442188 22.8892462 -31.6875 27.85546875 C-30.98625 27.13359375 -30.285 26.41171875 -29.5625 25.66796875 C-27.70855913 23.80361249 -25.87568842 22.20248987 -23.8125 20.54296875 C-21.42812187 18.59431454 -19.43893072 16.50766945 -17.4375 14.16796875 C-14.55709614 10.84148465 -11.67457573 7.52444158 -8.6875 4.29296875 C-7.90375 3.42542969 -7.12 2.55789062 -6.3125 1.6640625 C-3.6875 -0.14453125 -3.6875 -0.14453125 0 0 Z " fill="#094D86" transform="translate(105.6875,218.14453125)"/>
<path d="M0 0 C0.66 -0.33 1.32 -0.66 2 -1 C7.70991556 -1.54903034 10.49807763 -0.51369551 15 3 C15.680625 2.34 16.36125 1.68 17.0625 1 C20.74874118 -1.50978123 22.61738151 -1.62608836 27 -1 C30.22618733 1.0790985 31.8669302 2.80039529 34 6 C34.22705078 8.72729492 34.22705078 8.72729492 34.1953125 11.98046875 C34.18886719 13.14384766 34.18242187 14.30722656 34.17578125 15.50585938 C34.15902344 16.72080078 34.14226562 17.93574219 34.125 19.1875 C34.11597656 20.41404297 34.10695313 21.64058594 34.09765625 22.90429688 C34.07406017 25.93639295 34.04113841 28.96809938 34 32 C27.84765625 32.09765625 27.84765625 32.09765625 26 32 C24.39163783 30.39163783 24.79692428 28.60292297 24.71875 26.37890625 C24.66267578 24.97608398 24.66267578 24.97608398 24.60546875 23.54492188 C24.55326172 22.06862305 24.55326172 22.06862305 24.5 20.5625 C24.43125383 18.62614952 24.35853125 16.68993487 24.28125 14.75390625 C24.25095703 13.89095947 24.22066406 13.0280127 24.18945312 12.13891602 C24.12716856 9.94887445 24.12716856 9.94887445 23 8 C20.52733235 8.34444881 20.52733235 8.34444881 18 9 C16.79971191 11.40057617 16.89969655 12.85977472 16.9375 15.53515625 C16.94523437 16.42654297 16.95296875 17.31792969 16.9609375 18.23632812 C16.97382813 19.16896484 16.98671875 20.10160156 17 21.0625 C17.02539566 22.90749493 17.04646727 24.75255621 17.0625 26.59765625 C17.07410156 27.41758057 17.08570313 28.23750488 17.09765625 29.08227539 C17 31 17 31 16 32 C13.32941149 32.14115161 10.67567762 32.04247107 8 32 C6.36751694 27.02662138 7.0320496 21.78904213 7.16015625 16.62890625 C7.00914162 13.20713584 6.4949419 11.04264646 5 8 C1.70924004 8.37904208 1.70924004 8.37904208 -1 10 C-1.08685603 11.56172745 -1.10702219 13.12729344 -1.09765625 14.69140625 C-1.09443359 15.63564453 -1.09121094 16.57988281 -1.08789062 17.55273438 C-1.07951172 18.54595703 -1.07113281 19.53917969 -1.0625 20.5625 C-1.05798828 21.55958984 -1.05347656 22.55667969 -1.04882812 23.58398438 C-1.03700007 26.05604849 -1.02051849 28.52799518 -1 31 C-4.62099108 32.1141511 -6.91155355 32 -11 32 C-11 21.44 -11 10.88 -11 0 C-5.9943366 -0.83427723 -4.47136135 -0.99363586 0 0 Z M-3 1 C-2 3 -2 3 -2 3 Z " fill="#0E4D80" transform="translate(321,232)"/>
<path d="M0 0 C2.97 0 5.94 0 9 0 C9.99250545 5.70690634 10.10477512 11.21408489 10 17 C11.77223719 14.91784697 13.54282726 12.83433081 15.3125 10.75 C15.81201172 10.16347656 16.31152344 9.57695312 16.82617188 8.97265625 C17.55610352 8.11220703 17.55610352 8.11220703 18.30078125 7.234375 C19.01391479 6.3995459 19.01391479 6.3995459 19.74145508 5.54785156 C21.12138335 3.9116832 21.12138335 3.9116832 22.53125 1.59375 C24 0 24 0 26.48046875 -0.390625 C27.82044922 -0.32101563 27.82044922 -0.32101563 29.1875 -0.25 C30.08855469 -0.21390625 30.98960937 -0.1778125 31.91796875 -0.140625 C32.94857422 -0.07101563 32.94857422 -0.07101563 34 0 C32.49386443 4.79632459 29.77633773 7.88402779 26.5 11.5625 C22.1422079 16.36879126 22.1422079 16.36879126 19 22 C19.65226562 22.845625 20.30453125 23.69125 20.9765625 24.5625 C23.23328515 27.48984842 25.4845696 30.42133731 27.734375 33.35400391 C28.8185951 34.76407565 29.90871111 36.16961058 31 37.57421875 C31.53625 38.27160156 32.0725 38.96898437 32.625 39.6875 C33.09164062 40.28949219 33.55828125 40.89148438 34.0390625 41.51171875 C35 43 35 43 35 45 C31.37 45 27.74 45 24 45 C23.67 44.01 23.34 43.02 23 42 C21.515 41.505 21.515 41.505 20 41 C18.33889835 38.83970719 16.81056857 36.7049116 15.3125 34.4375 C14.89677734 33.82197266 14.48105469 33.20644531 14.05273438 32.57226562 C13.02806838 31.05293329 12.01309322 29.52707343 11 28 C9.50455019 30.99089963 9.94594545 33.74152346 10 37.0625 C10.0375585 39.37469498 10.04676667 41.68797294 10 44 C9.505 44.495 9.505 44.495 9 45 C6.03 45 3.06 45 0 45 C0 30.15 0 15.3 0 0 Z " fill="#095086" transform="translate(146,219)"/>
<path d="M0 0 C2.97 0 5.94 0 9 0 C9 14.85 9 29.7 9 45 C2 45 2 45 -1 44 C-1.598125 44.309375 -2.19625 44.61875 -2.8125 44.9375 C-5.80868807 46.39279135 -7.68888705 46.3895427 -11 46 C-14.9208075 44.53178272 -17.43259704 42.79436415 -19.875 39.375 C-22.14836182 32.55491455 -22.92455914 26.38673334 -19.953125 19.6875 C-17.84581758 15.95652949 -15.03488003 13.42407531 -11 12 C-6.63371983 11.63614332 -5.04267119 11.97866441 -1 14 C-0.67 9.38 -0.34 4.76 0 0 Z M-10.25 21.375 C-12.88335514 25.32503272 -12.66413417 29.37422825 -12 34 C-10.25442394 37.34366067 -10.25442394 37.34366067 -6.5625 37.875 C-3.15792822 38.30550163 -3.15792822 38.30550163 -1.125 36.9375 C1.20420582 32.92608998 1.14761512 29.73807558 0.25 25.25 C-0.7328396 21.76104908 -0.7328396 21.76104908 -4 20 C-7.87062509 19.65236666 -7.87062509 19.65236666 -10.25 21.375 Z " fill="#1A5886" transform="translate(266,219)"/>
<path d="M0 0 C2.05078125 0.03255208 4.1015625 0.06510417 6.15234375 0.09765625 C6.48234375 5.04765625 6.81234375 9.99765625 7.15234375 15.09765625 C8.14234375 14.10765625 9.13234375 13.11765625 10.15234375 12.09765625 C13.86439599 11.82768881 17.70751369 11.55342208 21.15234375 13.09765625 C24.57704629 16.71010241 25.67752593 19.08291935 25.90234375 24.03515625 C25.95777344 25.16179687 26.01320312 26.2884375 26.0703125 27.44921875 C26.20262181 33.333833 26.23175858 39.21213495 26.15234375 45.09765625 C23.18234375 45.09765625 20.21234375 45.09765625 17.15234375 45.09765625 C17.10335937 43.61652344 17.054375 42.13539063 17.00390625 40.609375 C16.92887532 38.66794975 16.85332763 36.72654443 16.77734375 34.78515625 C16.74640625 33.80869141 16.71546875 32.83222656 16.68359375 31.82617188 C16.64492187 30.88837891 16.60625 29.95058594 16.56640625 28.984375 C16.53498535 28.12030029 16.50356445 27.25622559 16.47119141 26.3659668 C16.28046338 23.8202318 16.28046338 23.8202318 14.15234375 21.09765625 C11.71517117 21.36800259 11.71517117 21.36800259 9.15234375 22.09765625 C7.05024518 25.2508041 6.90886765 25.95868706 6.95703125 29.546875 C6.96347656 30.39443359 6.96992188 31.24199219 6.9765625 32.11523438 C7.00169922 33.4368457 7.00169922 33.4368457 7.02734375 34.78515625 C7.04087891 36.12416992 7.04087891 36.12416992 7.0546875 37.49023438 C7.07824627 39.69297939 7.11114046 41.89518213 7.15234375 44.09765625 C3.42174676 45.05695262 0.884363 44.94441692 -2.84765625 44.09765625 C-2.87230138 37.99210915 -2.89048996 31.88659074 -2.90258789 25.78100586 C-2.90762913 23.70222469 -2.91446199 21.62344709 -2.9230957 19.54467773 C-2.93517047 16.56363039 -2.94088649 13.58262976 -2.9453125 10.6015625 C-2.95305443 9.19844566 -2.95305443 9.19844566 -2.96095276 7.76698303 C-2.96102829 6.90616623 -2.96110382 6.04534943 -2.96118164 5.15844727 C-2.96340225 4.3967775 -2.96562286 3.63510773 -2.96791077 2.85035706 C-2.79944636 0.39500062 -2.45420125 0.12971465 0 0 Z " fill="#0C4D80" transform="translate(185.84765625,218.90234375)"/>
<path d="M0 0 C2.64 0 5.28 0 8 0 C9.23402862 4.77092956 9.11265112 9.42469446 9.0625 14.3125 C9.05798828 15.14845703 9.05347656 15.98441406 9.04882812 16.84570312 C9.03710548 18.89716649 9.01917203 20.94859273 9 23 C9.54527344 22.28972656 10.09054687 21.57945312 10.65234375 20.84765625 C16.73833767 13.43002605 16.73833767 13.43002605 20.6015625 12.11328125 C23.0625 11.875 23.0625 11.875 27 12 C27 16.55160926 26.6171663 16.85373677 23.625 19.9375 C20.84880326 22.8108065 19.3052112 25.20961395 18 29 C19.26852394 30.60599349 20.539911 32.20972575 21.8125 33.8125 C22.52019531 34.70582031 23.22789062 35.59914062 23.95703125 36.51953125 C25.86241974 38.94482457 25.86241974 38.94482457 27.76171875 40.63671875 C29 42 29 42 29 45 C25.7 45 22.4 45 19 45 C18.67 44.01 18.34 43.02 18 42 C17.34 42 16.68 42 16 42 C14.4921875 40.25 14.4921875 40.25 12.875 38 C12.33617187 37.2575 11.79734375 36.515 11.2421875 35.75 C10.62730469 34.88375 10.62730469 34.88375 10 34 C8.76732652 35.00836062 8.76732652 35.00836062 8.90234375 37.06640625 C8.91394531 37.89011719 8.92554688 38.71382813 8.9375 39.5625 C8.94652344 40.38878906 8.95554687 41.21507812 8.96484375 42.06640625 C8.97644531 42.70449219 8.98804688 43.34257812 9 44 C5.846632 44.70074844 3.27275026 45 0 45 C0 30.15 0 15.3 0 0 Z " fill="#135082" transform="translate(443,219)"/>
<path d="M0 0 C4.84245702 1.70382747 6.73630083 3.45684505 9 8 C9.43237305 10.77075195 9.43237305 10.77075195 9.51171875 13.73828125 C9.56489258 15.33833008 9.56489258 15.33833008 9.61914062 16.97070312 C9.64169922 18.07349609 9.66425781 19.17628906 9.6875 20.3125 C9.73874023 21.99569336 9.73874023 21.99569336 9.79101562 23.71289062 C9.87329601 26.47516062 9.94251281 29.23712113 10 32 C7.19668199 32.82949151 5.91270307 32.98396587 2.9375 32.4375 C-0.18251805 31.63690947 -0.18251805 31.63690947 -3 34 C-4.9375 34.23046875 -4.9375 34.23046875 -7 34.1875 C-7.680625 34.18105469 -8.36125 34.17460937 -9.0625 34.16796875 C-11 34 -11 34 -14 33 C-14 32.34 -14 31.68 -14 31 C-14.66 31 -15.32 31 -16 31 C-18.2283499 26.67437961 -18.1951994 23.69542622 -17 19 C-14.11236496 14.89067321 -10.81777341 13.97988612 -6 13 C-3.66784156 12.92596322 -1.33139212 12.90484114 1 13 C0.67 11.35 0.34 9.7 0 8 C-4.14093698 7.79029441 -4.14093698 7.79029441 -8 9 C-8.33 9.99 -8.66 10.98 -9 12 C-11.64 12 -14.28 12 -17 12 C-16.71998862 7.98650355 -16.24236211 6.27964858 -13.5625 3.1875 C-9.16301766 -0.56815565 -5.6194286 -0.52031746 0 0 Z M-8 21 C-8.98617135 22.94285168 -8.98617135 22.94285168 -9 25 C-8.34 25.66 -7.68 26.32 -7 27 C-3.96655046 26.91115 -3.96655046 26.91115 -1 26 C1.36980013 23.04622502 1.36980013 23.04622502 1 19 C-2.56144099 18.80214217 -5.04454879 18.88896342 -8 21 Z " fill="#034C84" transform="translate(296,231)"/>
<path d="M0 0 C2.37682575 3.56523863 2.44115116 6.36412109 2.625 10.5 C2.66294678 11.20962891 2.70089355 11.91925781 2.73999023 12.65039062 C3.02799589 18.43401444 3.11040536 24.20985239 3 30 C0.36 30 -2.28 30 -5 30 C-5.33 29.34 -5.66 28.68 -6 28 C-6.845625 28.515625 -7.69125 29.03125 -8.5625 29.5625 C-12.70435145 31.29454697 -14.69863007 31.17310089 -19 30 C-21.9375 28.5 -21.9375 28.5 -24 26 C-24.95349787 21.52525121 -24.58298871 18.09601878 -22.4375 14.0625 C-17.53718006 9.91607543 -12.20789613 9.74661648 -6 10 C-6.33 8.68 -6.66 7.36 -7 6 C-9.97 5.505 -9.97 5.505 -13 5 C-13.350625 5.66 -13.70125 6.32 -14.0625 7 C-16 9 -16 9 -19.6875 9.25 C-20.780625 9.1675 -21.87375 9.085 -23 9 C-24 7 -24 7 -23 3.5625 C-21.55856546 0.41755191 -20.93245686 -0.0402661 -17.75 -1.9375 C-10.84969629 -3.89258605 -6.20417939 -3.28456556 0 0 Z M-15 18 C-15.33 18.99 -15.66 19.98 -16 21 C-14.8354799 22.66621425 -14.8354799 22.66621425 -13 24 C-10.43810155 24.15474612 -10.43810155 24.15474612 -8 23 C-6.04664818 20.66209929 -6.04664818 20.66209929 -5 18 C-5.33 17.34 -5.66 16.68 -6 16 C-9.81507216 16 -11.67908998 16.29466783 -15 18 Z " fill="#184E85" transform="translate(239,234)"/>
<path d="M0 0 C4.08603777 2.08016468 6.33148353 3.75197115 8 8 C8.3347168 10.64135742 8.3347168 10.64135742 8.44921875 13.60546875 C8.49240234 14.67087891 8.53558594 15.73628906 8.58007812 16.83398438 C8.63325195 18.49397461 8.63325195 18.49397461 8.6875 20.1875 C8.73455078 21.30576172 8.78160156 22.42402344 8.83007812 23.57617188 C9.05547948 29.66200851 9.05547948 29.66200851 9 32 C8 33 8 33 4.5625 33.125 C1 33 1 33 -1 32 C-1.70125 32.33 -2.4025 32.66 -3.125 33 C-7.00183081 34.34846289 -10.07315071 34.11726256 -14 33 C-17.27588147 30.81607902 -17.88086664 29.42888011 -18.9375 25.625 C-19.01229697 21.28677567 -18.66158021 19.44439791 -16 16 C-11.21065798 13.50691785 -6.38865962 12.58548772 -1 13 C-1.66 11.35 -2.32 9.7 -3 8 C-4.98 8.33 -6.96 8.66 -9 9 C-9.33 9.99 -9.66 10.98 -10 12 C-12.64 12 -15.28 12 -18 12 C-17.72301826 8.02992844 -17.23315777 6.27610788 -14.625 3.1875 C-10.17019414 -0.52483822 -5.58740273 -0.69604164 0 0 Z M-10 21 C-10 22.65 -10 24.3 -10 26 C-7.19954954 26.85650653 -7.19954954 26.85650653 -4 27 C-1.52018248 25.43695474 -1.52018248 25.43695474 0 23 C0 21.68 0 20.36 0 19 C-3.85645121 18.77963136 -6.49223216 19.39644899 -10 21 Z " fill="#0A4878" transform="translate(377,231)"/>
<path d="M0 0 C2.64 0.33 5.28 0.66 8 1 C8 11.56 8 22.12 8 33 C1 33 1 33 -2 32 C-3.670625 32.495 -3.670625 32.495 -5.375 33 C-10.5859375 34.4375 -10.5859375 34.4375 -14 33 C-18.47368885 28.58012996 -19.75847381 25.40757544 -19.8125 19.0625 C-19.83763672 18.38509766 -19.86277344 17.70769531 -19.88867188 17.00976562 C-19.95586891 15.00729388 -19.97833009 13.00348171 -20 11 C-20.02449219 9.74058594 -20.04898437 8.48117188 -20.07421875 7.18359375 C-20 4 -20 4 -19 1 C-16.36 1 -13.72 1 -11 1 C-10.98018066 1.58491211 -10.96036133 2.16982422 -10.93994141 2.77246094 C-10.84446519 5.43208025 -10.73487858 8.09093838 -10.625 10.75 C-10.5940625 11.67039063 -10.563125 12.59078125 -10.53125 13.5390625 C-10.49257813 14.42851562 -10.45390625 15.31796875 -10.4140625 16.234375 C-10.3826416 17.05131836 -10.3512207 17.86826172 -10.31884766 18.70996094 C-9.97656307 21.16832958 -9.2260723 22.85759999 -8 25 C-4.70924004 24.62095792 -4.70924004 24.62095792 -2 23 C-1.85492735 21.37877577 -1.7728999 19.75180111 -1.71875 18.125 C-1.68136719 17.14015625 -1.64398438 16.1553125 -1.60546875 15.140625 C-1.57066406 14.10421875 -1.53585937 13.0678125 -1.5 12 C-1.43143151 9.95818268 -1.35874142 7.91649815 -1.28125 5.875 C-1.25095703 4.96492187 -1.22066406 4.05484375 -1.18945312 3.1171875 C-1 1 -1 1 0 0 Z " fill="#1A507F" transform="translate(431,231)"/>
<path d="M0 0 C0 3.3 0 6.6 0 10 C2.97 10 5.94 10 9 10 C8.67 12.31 8.34 14.62 8 17 C5.36 17 2.72 17 0 17 C0.1409349 19.43787385 0.28754542 21.87517853 0.4375 24.3125 C0.47681641 25.00279297 0.51613281 25.69308594 0.55664062 26.40429688 C0.74927415 29.47161535 1.02322717 32.06968152 2 35 C5.465 34.505 5.465 34.505 9 34 C9.48192771 39.42168675 9.48192771 39.42168675 7.4375 41.875 C3.99087134 43.46575169 1.76260996 43.51898068 -2 43 C-5.75577951 40.70480141 -7.62913513 39.27153671 -8.875 35 C-8.96098019 33.66878954 -8.99304018 32.33396606 -9 31 C-9.01417969 29.89785156 -9.02835937 28.79570312 -9.04296875 27.66015625 C-9.06045648 24.43891657 -9.04359138 21.22091841 -9 18 C-10.65 17.67 -12.3 17.34 -14 17 C-14 14.69 -14 12.38 -14 10 C-12.02 9.67 -10.04 9.34 -8 9 C-8.33 6.69 -8.66 4.38 -9 2 C-2.25 0 -2.25 0 0 0 Z " fill="#124D80" transform="translate(400,222)"/>
<path d="M0 0 C0.33 0 0.66 0 1 0 C1 9.9 1 19.8 1 30 C-3.1146875 30.0309375 -3.1146875 30.0309375 -7.3125 30.0625 C-8.17270752 30.071604 -9.03291504 30.08070801 -9.91918945 30.09008789 C-10.60198975 30.09258545 -11.28479004 30.09508301 -11.98828125 30.09765625 C-13.03302612 30.10551147 -13.03302612 30.10551147 -14.09887695 30.11352539 C-16 30 -16 30 -19 29 C-19 28.34 -19 27.68 -19 27 C-16.12474257 24.3377246 -13.78288873 23.69684792 -10 23 C-7.33625753 20.33625753 -7.34586565 18.73534903 -7 15 C-7.13490037 13.60073935 -7.30263266 12.2043242 -7.5 10.8125 C-8 7 -8 7 -7 4 C-5.35 4.33 -3.7 4.66 -2 5 C-1.34 3.35 -0.68 1.7 0 0 Z " fill="#0E5083" transform="translate(273,233)"/>
<path d="M0 0 C2.02350324 3.03525486 2.32124018 4.19426202 2.625 7.6875 C2.69976562 8.49574219 2.77453125 9.30398437 2.8515625 10.13671875 C2.92503906 11.05904297 2.92503906 11.05904297 3 12 C2.01 12.33 1.02 12.66 0 13 C0 12.01 0 11.02 0 10 C-0.66 10 -1.32 10 -2 10 C-2 10.66 -2 11.32 -2 12 C-3.625 14.125 -3.625 14.125 -6 16 C-9.25 16.25 -9.25 16.25 -12 16 C-10.71034824 14.62437146 -9.37310707 13.29233607 -8 12 C-7.34 12 -6.68 12 -6 12 C-6.33 10.02 -6.66 8.04 -7 6 C-9.97 5.505 -9.97 5.505 -13 5 C-13.350625 5.66 -13.70125 6.32 -14.0625 7 C-16 9 -16 9 -19.6875 9.25 C-20.780625 9.1675 -21.87375 9.085 -23 9 C-24 7 -24 7 -23 3.5625 C-21.55856546 0.41755191 -20.93245686 -0.0402661 -17.75 -1.9375 C-10.84969629 -3.89258605 -6.20417939 -3.28456556 0 0 Z " fill="#0C4A7E" transform="translate(239,234)"/>
<path d="M0 0 C9.18816331 -0.02316953 18.37631657 -0.04093864 27.56450272 -0.05181217 C31.83093548 -0.05703089 36.09734827 -0.06411023 40.36376953 -0.07543945 C44.48103787 -0.0863042 48.59828698 -0.09228446 52.71556854 -0.09487724 C54.28643852 -0.09672501 55.85730745 -0.10033321 57.42816925 -0.10573006 C59.62824275 -0.11298806 61.82823677 -0.11398893 64.02832031 -0.11352539 C65.9069577 -0.11685631 65.9069577 -0.11685631 67.82354736 -0.12025452 C70.42854885 -0.02163406 72.53125168 0.22209239 75 1 C74.75885216 1.79135345 74.75885216 1.79135345 74.51283264 2.59869385 C73.87676478 5.57704105 73.83600802 8.37426616 73.79467773 11.42089844 C73.77473251 12.72194519 73.75478729 14.02299194 73.73423767 15.36346436 C73.71725582 16.7787667 73.70037693 18.19407028 73.68359375 19.609375 C73.66301245 21.06097999 73.64201567 22.51257914 73.62062073 23.96417236 C73.56552149 27.77812972 73.51605885 31.59214007 73.46777344 35.40618896 C73.41746951 39.30078834 73.36182993 43.19531109 73.30664062 47.08984375 C73.19920772 54.72649755 73.09772999 62.36321521 73 70 C71.515 70.495 71.515 70.495 70 71 C70.00666183 70.17980881 70.01332367 69.35961761 70.02018738 68.51457214 C70.08026878 60.78954867 70.12595913 53.06463829 70.15543652 45.33944225 C70.17110056 41.36771373 70.19235199 37.39617807 70.22631836 33.42456055 C70.25888596 29.59256911 70.27684745 25.76076332 70.28463173 21.92864418 C70.29017996 20.46577341 70.30101425 19.00291293 70.31719017 17.54012108 C70.33893079 15.49291304 70.34196847 13.4464746 70.34057617 11.39916992 C70.34723801 10.23334885 70.35389984 9.06752777 70.36076355 7.86637878 C70.19949762 5.053738 70.19949762 5.053738 68.89013672 3.12133789 C66.0499124 1.43635336 63.7025466 1.64120584 60.41723633 1.65942383 C59.75355545 1.65898575 59.08987457 1.65854767 58.40608215 1.65809631 C56.21443161 1.66018481 54.02354799 1.68351732 51.83203125 1.70703125 C50.3117464 1.71262702 48.79145614 1.71689721 47.27116394 1.71989441 C43.27122035 1.73134476 39.27160394 1.76081328 35.27178955 1.79400635 C31.1897016 1.82470331 27.10756075 1.83839893 23.02539062 1.85351562 C15.01677699 1.88568305 7.00842921 1.9368814 -1 2 C-0.67 1.34 -0.34 0.68 0 0 Z " fill="#EEC54F" transform="translate(46,205)"/>
<path d="M0 0 C2.64 0 5.28 0 8 0 C8.05814085 3.58326501 8.09364357 7.16640838 8.125 10.75 C8.14175781 11.76578125 8.15851563 12.7815625 8.17578125 13.828125 C8.18222656 14.8078125 8.18867188 15.7875 8.1953125 16.796875 C8.20578613 17.69760742 8.21625977 18.59833984 8.22705078 19.52636719 C7.98721676 22.13926856 7.32312064 23.75664666 6 26 C0.27436441 21.97987288 0.27436441 21.97987288 -0.875 17.875 C-1.32352941 3.97058824 -1.32352941 3.97058824 0 0 Z " fill="#094E7D" transform="translate(412,232)"/>
<path d="M0 0 C0.33 0.66 0.66 1.32 1 2 C0.67 2.66 0.34 3.32 0 4 C-0.10772013 6.35288428 -0.14893902 8.70889173 -0.16113281 11.06420898 C-0.16609772 11.79119995 -0.17106262 12.51819092 -0.17617798 13.26721191 C-0.19080674 15.67684874 -0.19760223 18.08641978 -0.203125 20.49609375 C-0.20887521 22.16756696 -0.21463296 23.83904015 -0.22039795 25.51051331 C-0.23090952 29.01685901 -0.23675138 32.52318177 -0.24023438 36.02954102 C-0.24572402 40.52678399 -0.26976126 45.02372493 -0.29820633 49.52087307 C-0.31681006 52.9737894 -0.32203706 56.42663258 -0.32357025 59.8795948 C-0.3266017 61.53782874 -0.33464674 63.19606124 -0.34775543 64.85424614 C-0.36477151 67.17186503 -0.36294712 69.48874083 -0.35644531 71.80639648 C-0.36009094 73.12606918 -0.36373657 74.44574188 -0.36749268 75.80540466 C-0.28018985 78.95876412 -0.28018985 78.95876412 1.40899658 80.85194397 C2.19654327 81.4202317 2.19654327 81.4202317 3 82 C3.598125 82.515625 4.19625 83.03125 4.8125 83.5625 C7.4252236 85.27943265 10.01304728 86.11749124 13 87 C12.505 87.99 12.505 87.99 12 89 C5.14536753 87.49198086 1.00235536 85.00353304 -3 79 C-3.26069641 75.86355591 -3.26069641 75.86355591 -3.2746582 71.94580078 C-3.27976913 71.23162994 -3.28488007 70.51745911 -3.29014587 69.78164673 C-3.30405196 67.41945018 -3.30308415 65.05754513 -3.30078125 62.6953125 C-3.3046681 61.05247896 -3.30900275 59.40964642 -3.31376648 57.76681519 C-3.32123121 54.32188664 -3.32093595 50.87706057 -3.31567383 47.43212891 C-3.30988387 43.02139795 -3.32679728 38.61108754 -3.3500185 34.2004261 C-3.36476542 30.80660557 -3.36562616 27.41288605 -3.36250877 24.01903915 C-3.36302167 22.39316857 -3.36825353 20.76729229 -3.37832069 19.14145279 C-3.39068437 16.86502196 -3.38389412 14.58940647 -3.37231445 12.31298828 C-3.37294388 11.0185379 -3.3735733 9.72408752 -3.3742218 8.39041138 C-2.97812358 4.80180191 -2.09479618 2.89798284 0 0 Z " fill="#EEBC2F" transform="translate(34,201)"/>
<path d="M0 0 C0.33 0.66 0.66 1.32 1 2 C0.01 2 -0.98 2 -2 2 C0.05233685 4.2477975 1.00667261 5.0022242 4 6 C3.34 6.556875 2.68 7.11375 2 7.6875 C-0.25492211 9.84062308 -0.25492211 9.84062308 -0.25 12.75 C-0.12625 13.86375 -0.12625 13.86375 0 15 C0.86625 15.1546875 0.86625 15.1546875 1.75 15.3125 C4.32049158 16.09792798 5.93657284 17.30504197 8 19 C4.97455666 21.01696222 4.38932618 21.25811096 1 21.1875 C0.319375 21.18105469 -0.36125 21.17460937 -1.0625 21.16796875 C-3 21 -3 21 -6 20 C-6 19.34 -6 18.68 -6 18 C-6.66 18 -7.32 18 -8 18 C-10.2283499 13.67437961 -10.1951994 10.69542622 -9 6 C-6.47778544 2.66707362 -3.93008778 1.31002926 0 0 Z " fill="#30648C" transform="translate(288,244)"/>
<path d="M0 0 C5.46341463 2.92682927 5.46341463 2.92682927 7 6 C6.01 7.32 5.02 8.64 4 10 C3.525625 9.195625 3.05125 8.39125 2.5625 7.5625 C1.23099846 5.15246512 1.23099846 5.15246512 0 4 C-0.33 4.66 -0.66 5.32 -1 6 C-0.34 6.66 0.32 7.32 1 8 C0.34 10.31 -0.32 12.62 -1 15 C-2.65 15 -4.3 15 -6 15 C-6.33 14.34 -6.66 13.68 -7 13 C-5.02 13 -3.04 13 -1 13 C-1.66 11.35 -2.32 9.7 -3 8 C-4.98 8.33 -6.96 8.66 -9 9 C-9.33 9.99 -9.66 10.98 -10 12 C-12.64 12 -15.28 12 -18 12 C-17.72301826 8.02992844 -17.23315777 6.27610788 -14.625 3.1875 C-10.18052414 -0.51622989 -5.57823198 -0.71272129 0 0 Z " fill="#285B87" transform="translate(377,231)"/>
<path d="M0 0 C2.83079529 3.1846447 3 4.85079429 3 9 C4.39585785 10.81476003 4.39585785 10.81476003 6 12 C6.66 11.01 7.32 10.02 8 9 C8.33 15.27 8.66 21.54 9 28 C5.41220825 28.89694794 2.65381163 29.08304117 -1 29 C-1.02465881 25.03069011 -1.04284023 21.06140966 -1.05493164 17.09204102 C-1.05997057 15.74079614 -1.06680177 14.38955674 -1.07543945 13.03833008 C-1.08752419 11.09979566 -1.09269828 9.161222 -1.09765625 7.22265625 C-1.10289307 6.05484619 -1.10812988 4.88703613 -1.11352539 3.68383789 C-1 1 -1 1 0 0 Z " fill="#235B8A" transform="translate(311,235)"/>
<path d="M0 0 C0.875 2.125 0.875 2.125 1 4 C-0.65 4.33 -2.3 4.66 -4 5 C-4 6.98 -4 8.96 -4 11 C-3.21625 11.2475 -2.4325 11.495 -1.625 11.75 C1.32317108 13.15389099 1.9024777 14.00675737 3 17 C-0.98764147 18.05555215 -4.00933425 18.10380117 -8 17 C-11.16229446 14.77784713 -11.89711057 13.37040194 -12.9375 9.625 C-13.00954896 5.44616045 -12.32455736 3.44675746 -10 0 C-6.5161471 -2.88318861 -3.87410465 -1.89400672 0 0 Z " fill="#06487E" transform="translate(371,247)"/>
<path d="M0 0 C4.78672163 1.35039566 4.78672163 1.35039566 6.25390625 3.91796875 C5.89169085 8.20063317 4.54041502 10.08844387 1.44140625 12.98046875 C0.75433594 13.63144531 0.06726563 14.28242188 -0.640625 14.953125 C-1.68283203 15.92572266 -1.68283203 15.92572266 -2.74609375 16.91796875 C-4.08404065 18.2466725 -5.4187394 19.57868313 -6.74609375 20.91796875 C-6.60171875 20.36109375 -6.45734375 19.80421875 -6.30859375 19.23046875 C-6.03015625 18.08578125 -6.03015625 18.08578125 -5.74609375 16.91796875 C-5.40578125 15.64953125 -5.40578125 15.64953125 -5.05859375 14.35546875 C-4.44248614 11.66270911 -4.44248614 11.66270911 -6.74609375 8.91796875 C-7.69484375 9.43359375 -8.64359375 9.94921875 -9.62109375 10.48046875 C-10.65234375 10.95484375 -11.68359375 11.42921875 -12.74609375 11.91796875 C-13.40609375 11.58796875 -14.06609375 11.25796875 -14.74609375 10.91796875 C-13.08195525 9.03716123 -11.39513379 7.19229799 -9.68359375 5.35546875 C-9.21759766 4.82244141 -8.75160156 4.28941406 -8.27148438 3.74023438 C-5.40669753 0.71954076 -4.23134579 -0.09265721 0 0 Z " fill="#094C84" transform="translate(105.74609375,218.08203125)"/>
<path d="M0 0 C1.65 1.32 3.3 2.64 5 4 C4.29617187 4.69351563 3.59234375 5.38703125 2.8671875 6.1015625 C-0.14019002 9.10894002 -3.00587068 12.23647319 -5.875 15.375 C-7.44635641 17.07568022 -9.01974294 18.77446518 -10.59326172 20.47314453 C-11.79184996 21.77407664 -12.97740963 23.08699263 -14.16015625 24.40234375 C-18.34774977 28.90285635 -18.34774977 28.90285635 -21.9375 29.4375 C-22.9584375 29.2209375 -22.9584375 29.2209375 -24 29 C-24.33 27.68 -24.66 26.36 -25 25 C-23.02 25.33 -21.04 25.66 -19 26 C-18.67 25.34 -18.34 24.68 -18 24 C-17.34 24 -16.68 24 -16 24 C-15.34 22.68 -14.68 21.36 -14 20 C-13.34 20 -12.68 20 -12 20 C-12 19.01 -12 18.02 -12 17 C-11.34 17 -10.68 17 -10 17 C-10.391875 16.154375 -10.78375 15.30875 -11.1875 14.4375 C-12.25105256 9.93785454 -11.18564442 7.9944536 -9 4 C-7.3125 2.0625 -7.3125 2.0625 -6 1 C-5.34 1.33 -4.68 1.66 -4 2 C-4.33 2.99 -4.66 3.98 -5 5 C-4.67 5.33 -4.34 5.66 -4 6 C-2.68 4.02 -1.36 2.04 0 0 Z " fill="#034A85" transform="translate(94,236)"/>
<path d="M0 0 C1.98 0 3.96 0 6 0 C6 14.85 6 29.7 6 45 C3.69 45 1.38 45 -1 45 C-1 44.67 -1 44.34 -1 44 C0.98 44 2.96 44 5 44 C4.67 35.42 4.34 26.84 4 18 C2.02 18.99 2.02 18.99 0 20 C-0.33 19.34 -0.66 18.68 -1 18 C-1.66 18 -2.32 18 -3 18 C-3.33 19.32 -3.66 20.64 -4 22 C-4.99 21.34 -5.98 20.68 -7 20 C-6.34 20 -5.68 20 -5 20 C-5 19.01 -5 18.02 -5 17 C-3.68 17 -2.36 17 -1 17 C-1 12.05 -1 7.1 -1 2 C0.65 2 2.3 2 4 2 C4.33 1.67 4.66 1.34 5 1 C3.35 1 1.7 1 0 1 C0 0.67 0 0.34 0 0 Z " fill="#245C8A" transform="translate(269,219)"/>
<path d="M0 0 C4.89882273 4.89882273 3.04762513 16.89281532 3.06567383 23.65835571 C3.06026675 28.29320834 3.03350693 32.92777407 3 37.5625 C2.97333425 41.31379909 2.95342565 45.06504799 2.9375 48.81640625 C2.92920166 49.66537979 2.92090332 50.51435333 2.91235352 51.38905334 C2.89569459 55.39996976 2.99165503 59.08521975 4 63 C2.68 62.67 1.36 62.34 0 62 C0 41.54 0 21.08 0 0 Z " fill="#F5C327" transform="translate(39,213)"/>
<path d="M0 0 C2.97 0 5.94 0 9 0 C10.32528788 6.09632423 9.46619907 10.97767819 8 17 C7.67 17 7.34 17 7 17 C6.67 12.71 6.34 8.42 6 4 C5.01 4.66 4.02 5.32 3 6 C2.66232958 8.90156324 2.51091656 11.5999689 2.48828125 14.5078125 C2.47033005 15.34843231 2.45237885 16.18905212 2.43388367 17.05514526 C2.37961969 19.74504551 2.34583414 22.43476676 2.3125 25.125 C2.27934105 26.94663959 2.24485273 28.7682555 2.20898438 30.58984375 C2.12388428 35.05976695 2.05715044 39.52963559 2 44 C1.34 44 0.68 44 0 44 C0 29.48 0 14.96 0 0 Z " fill="#3C618E" transform="translate(146,219)"/>
<path d="M0 0 C0 2 0 2 -1.75 4 C-4 6 -4 6 -6.125 7 C-8.49191761 8.26235606 -9.0222242 9.55556051 -10 12 C-10.99 11.67 -11.98 11.34 -13 11 C-13 10.01 -13 9.02 -13 8 C-12.34 8 -11.68 8 -11 8 C-10.67 6.68 -10.34 5.36 -10 4 C-12.04836882 4.56362302 -12.04836882 4.56362302 -14 6 C-15.08892339 8.86637282 -15.08892339 8.86637282 -15 12 C-13.62831762 14.19038423 -13.62831762 14.19038423 -12 16 C-12 16.99 -12 17.98 -12 19 C-9.36 19 -6.72 19 -4 19 C-4.66 19.66 -5.32 20.32 -6 21 C-9.8294289 20.85549325 -12.52011147 20.24504946 -15.9375 18.5 C-18.58494213 15.29097923 -18.66842708 13.25733327 -18.4140625 9.1875 C-17.77236214 5.79738487 -16.62165275 4.21832156 -14 2 C-9.24839904 0.11729019 -5.08027655 -0.20735823 0 0 Z " fill="#1C5382" transform="translate(233,244)"/>
<path d="M0 0 C1.32 0 2.64 0 4 0 C4 7.59 4 15.18 4 23 C2.02 22.67 0.04 22.34 -2 22 C-2.05807043 18.89591193 -2.09361914 15.7919636 -2.125 12.6875 C-2.14175781 11.80642578 -2.15851563 10.92535156 -2.17578125 10.01757812 C-2.18222656 9.17001953 -2.18867188 8.32246094 -2.1953125 7.44921875 C-2.20578613 6.66893311 -2.21625977 5.88864746 -2.22705078 5.0847168 C-2 3 -2 3 0 0 Z " fill="#014881" transform="translate(433,235)"/>
<path d="M0 0 C6.0546875 -0.1953125 6.0546875 -0.1953125 8 0 C10 2 10 2 10.1953125 5.9140625 C10.18200376 7.48449351 10.15813602 9.05486221 10.125 10.625 C10.11597656 11.42679688 10.10695313 12.22859375 10.09765625 13.0546875 C10.07406223 15.03658523 10.03819065 17.01832981 10 19 C10.33 15.04 10.66 11.08 11 7 C11.33 7.66 11.66 8.32 12 9 C12.99 9.33 13.98 9.66 15 10 C15.02692484 12.29160319 15.04636124 14.58329546 15.0625 16.875 C15.07410156 18.15117187 15.08570313 19.42734375 15.09765625 20.7421875 C15 24 15 24 14 26 C12.35 26 10.7 26 9 26 C7.36751694 21.02662138 8.0320496 15.78904213 8.16015625 10.62890625 C8.00914162 7.20713584 7.4949419 5.04264646 6 2 C2.39007621 2.65585189 2.39007621 2.65585189 -1 4 C-0.67 2.68 -0.34 1.36 0 0 Z " fill="#0E5089" transform="translate(320,238)"/>
<path d="M0 0 C0 0.66 0 1.32 0 2 C0.78375 1.79375 1.5675 1.5875 2.375 1.375 C3.674375 1.189375 3.674375 1.189375 5 1 C7 3 7 3 9 6 C9.99 6 10.98 6 12 6 C12.36585366 11.48780488 12.36585366 11.48780488 10.75 13.75 C6.0212766 17.12765957 6.0212766 17.12765957 3 16.75 C0.91235527 15.96713323 -1.03529239 15.05252193 -3 14 C-2.67 13.34 -2.34 12.68 -2 12 C1.0625 11.375 1.0625 11.375 4 11 C4.66 9.02 5.32 7.04 6 5 C3.03 5 0.06 5 -3 5 C-3.66 3.68 -4.32 2.36 -5 1 C-2 0 -2 0 0 0 Z " fill="#07497D" transform="translate(291,245)"/>
<path d="M0 0 C3.45152861 0.25566879 4.24488569 1.26197074 6.6875 3.875 C10.28364279 8.73465242 10.29884589 13.09153965 10.5625 18.9375 C10.6042334 19.85337891 10.6459668 20.76925781 10.68896484 21.71289062 C11.35516802 38.08245428 11.28095797 54.50374566 10.6875 70.875 C10.66510254 71.71804688 10.64270508 72.56109375 10.61962891 73.4296875 C10.39770747 78.31396742 9.57310546 81.70919144 7 86 C6.67 86 6.34 86 6 86 C5.79913557 82.28400809 5.8480563 81.22791555 8 78 C8.32585453 75.03668703 8.32585453 75.03668703 8.30639648 71.62011719 C8.33037758 69.64226227 8.33037758 69.64226227 8.35484314 67.62445068 C8.36122111 66.18192938 8.36661345 64.73940344 8.37109375 63.296875 C8.38006267 61.81577463 8.38918456 60.33467518 8.39845276 58.85357666 C8.41494668 55.74660035 8.42264314 52.63973181 8.42553711 49.53271484 C8.4309108 45.56358257 8.46854529 41.59547298 8.51428127 37.62662888 C8.5441251 34.56555551 8.55126229 31.50472575 8.55226326 28.44351959 C8.55645381 26.98114607 8.56884136 25.51877105 8.58978081 24.05654144 C8.69661725 15.94814965 8.71861811 10.20059732 3 4 C3 3.34 3 2.68 3 2 C2.01 2 1.02 2 0 2 C0 1.34 0 0.68 0 0 Z " fill="#E4B234" transform="translate(118,197)"/>
<path d="M0 0 C1.58473048 0.08015255 3.16906283 0.1767325 4.75 0.3125 C3.23540156 5.11774387 0.5079008 8.28329921 -2.75 12 C-3.49830078 12.87108398 -3.49830078 12.87108398 -4.26171875 13.75976562 C-6.20094658 16.00833409 -8.14984637 18.21234637 -10.25 20.3125 C-10.25 16.3125 -10.25 16.3125 -8.3125 14.25 C-7.631875 13.610625 -6.95125 12.97125 -6.25 12.3125 C-5.92 11.3225 -5.59 10.3325 -5.25 9.3125 C-5.91 9.3125 -6.57 9.3125 -7.25 9.3125 C-7.25 8.3225 -7.25 7.3325 -7.25 6.3125 C-7.91 5.9825 -8.57 5.6525 -9.25 5.3125 C-6.77450837 0.81160612 -4.94506959 -0.03502174 0 0 Z " fill="#19507C" transform="translate(175.25,218.6875)"/>
<path d="M0 0 C-0.33 1.32 -0.66 2.64 -1 4 C-1.66 4 -2.32 4 -3 4 C-2.67 4.99 -2.34 5.98 -2 7 C-1.01 7 -0.02 7 1 7 C1 7.66 1 8.32 1 9 C1.928125 9 2.85625 9 3.8125 9 C5.875 9 7.9375 9 10 9 C10 9.66 10 10.32 10 11 C10.66 11.33 11.32 11.66 12 12 C9.79817246 14.34388093 8.04603136 15.84551494 4.8046875 16.32421875 C2.24399708 16.24393308 0.37092701 15.98274484 -2 15 C-4.24871629 12.58576906 -5.32463092 10.2182805 -6 7 C-5.375 3.5625 -5.375 3.5625 -4 1 C-2 0 -2 0 0 0 Z " fill="#084B80" transform="translate(223,248)"/>
<path d="M0 0 C1.32 0.33 2.64 0.66 4 1 C3.51015625 1.55558594 3.0203125 2.11117187 2.515625 2.68359375 C0.72763741 5.4162655 0.65266422 6.83581898 0.75 10.0625 C0.76546875 10.91972656 0.7809375 11.77695313 0.796875 12.66015625 C0.92179776 15.15371825 0.92179776 15.15371825 2 18 C3.98 18.33 5.96 18.66 8 19 C7.4225 19.12375 6.845 19.2475 6.25 19.375 C3.97664233 20.00648824 2.0746471 20.88858191 0 22 C-4.48838496 8.23561947 -4.48838496 8.23561947 -1.5625 1.875 C-1.046875 1.25625 -0.53125 0.6375 0 0 Z M-8 17 C-7.34 17 -6.68 17 -6 17 C-6 17.66 -6 18.32 -6 19 C-5.34 19.33 -4.68 19.66 -4 20 C-2.66666667 20.66666667 -1.33333333 21.33333333 0 22 C0 22.66 0 23.32 0 24 C2.97 24.33 5.94 24.66 9 25 C7 27 7 27 4.3125 27.375 C-0.08970199 26.87663751 -2.32347361 25.47458507 -6 23 C-8 20 -8 20 -8 17 Z " fill="#376388" transform="translate(254,238)"/>
<path d="M0 0 C0.06058594 0.56847656 0.12117187 1.13695312 0.18359375 1.72265625 C0.70176573 6.49781037 1.29243859 11.2492305 2 16 C0.35 15.67 -1.3 15.34 -3 15 C-3.33 13.68 -3.66 12.36 -4 11 C-4.99 11 -5.98 11 -7 11 C-7 8.03 -7 5.06 -7 2 C-3 0 -3 0 0 0 Z " fill="#034B86" transform="translate(252,244)"/>
<path d="M0 0 C0.99 0 1.98 0 3 0 C3 0.66 3 1.32 3 2 C3.66 2.33 4.32 2.66 5 3 C7.74097805 5.74097805 7.98573859 7.50997793 8.09765625 11.35546875 C8.08605469 12.62003906 8.07445312 13.88460937 8.0625 15.1875 C8.05347656 16.45980469 8.04445313 17.73210937 8.03515625 19.04296875 C8.02355469 20.01878906 8.01195312 20.99460938 8 22 C6.35 22.33 4.7 22.66 3 23 C3.99 19.535 3.99 19.535 5 16 C4.505 15.67 4.01 15.34 3.5 15 C1.49251865 12.32335821 1.89034718 10.1777668 2.02734375 6.9375 C1.99349837 4.53931337 1.28290282 3.00453566 0 1 C0 0.67 0 0.34 0 0 Z " fill="#044B86" transform="translate(375,234)"/>
<path d="M0 0 C2.31 0.33 4.62 0.66 7 1 C6.67 1.66 6.34 2.32 6 3 C3.525 2.505 3.525 2.505 1 2 C1 6.95 1 11.9 1 17 C-0.32 17 -1.64 17 -3 17 C-3 17.99 -3 18.98 -3 20 C-9.625 20.125 -9.625 20.125 -13 19 C-13.33 19.99 -13.66 20.98 -14 22 C-14.93423645 18.98968256 -15.04449911 18.13349732 -14 15 C-12.22925083 14.97294271 -10.45838289 14.95357805 -8.6875 14.9375 C-7.70136719 14.92589844 -6.71523438 14.91429687 -5.69921875 14.90234375 C-3 15 -3 15 0 16 C0 10.72 0 5.44 0 0 Z " fill="#084478" transform="translate(267,219)"/>
<path d="M0 0 C3.41570632 3.41570632 3.39059661 3.96455174 3.51171875 8.54296875 C3.54716797 9.61611328 3.58261719 10.68925781 3.61914062 11.79492188 C3.64169922 12.91447266 3.66425781 14.03402344 3.6875 15.1875 C3.73874023 16.88422852 3.73874023 16.88422852 3.79101562 18.61523438 C3.87356314 21.4100574 3.94269182 24.20456398 4 27 C0.62103629 27.95821359 -1.58777852 28.01444422 -5 27 C-5.33 26.34 -5.66 25.68 -6 25 C-3 23 -3 23 1 21 C0.67 14.07 0.34 7.14 0 0 Z " fill="#2B557C" transform="translate(302,236)"/>
<path d="M0 0 C1.32 0.66 2.64 1.32 4 2 C4.33 1.67 4.66 1.34 5 1 C5.99 0.67 6.98 0.34 8 0 C8 0.99 8 1.98 8 3 C8.66 3 9.32 3 10 3 C10.33 4.98 10.66 6.96 11 9 C10.01 9.33 9.02 9.66 8 10 C8 9.01 8 8.02 8 7 C7.34 7 6.68 7 6 7 C6 7.66 6 8.32 6 9 C4.375 11.125 4.375 11.125 2 13 C-1.25 13.25 -1.25 13.25 -4 13 C-2.71034824 11.62437146 -1.37310707 10.29233607 0 9 C0.66 9 1.32 9 2 9 C1.34 6.03 0.68 3.06 0 0 Z " fill="#074A81" transform="translate(231,237)"/>
<path d="M0 0 C0.66 0 1.32 0 2 0 C2.33 0.66 2.66 1.32 3 2 C3.94875 2.28875 4.8975 2.5775 5.875 2.875 C9.25319754 4.09115112 10.26997211 4.92439487 12 8 C12 8.66 12 9.32 12 10 C10.20906809 10.08086147 8.41710372 10.13912702 6.625 10.1875 C5.12839844 10.23970703 5.12839844 10.23970703 3.6015625 10.29296875 C2.74304688 10.19628906 1.88453125 10.09960938 1 10 C-1.29404844 6.55892734 -1.26293056 5.03160191 -1 1 C-0.67 0.67 -0.34 0.34 0 0 Z " fill="#0F4F85" transform="translate(169,254)"/>
<path d="M0 0 C2.97379403 2.76870479 4.93235124 5.52259072 7 9 C7.66 9.33 8.32 9.66 9 10 C9 10.99 9 11.98 9 13 C5.7 13 2.4 13 -1 13 C-1.33 12.01 -1.66 11.02 -2 10 C-2.66 10 -3.32 10 -4 10 C-4 9.34 -4 8.68 -4 8 C-2.68 7.67 -1.36 7.34 0 7 C0 4.69 0 2.38 0 0 Z " fill="#165180" transform="translate(463,251)"/>
<path d="M0 0 C0.66 0 1.32 0 2 0 C2.66 2.64 3.32 5.28 4 8 C4.33 8 4.66 8 5 8 C5.33 5.69 5.66 3.38 6 1 C6.33 1 6.66 1 7 1 C7 6.94 7 12.88 7 19 C4.69 19 2.38 19 0 19 C1.875 17.9375 1.875 17.9375 4 17 C4.66 17.33 5.32 17.66 6 18 C5.67 16.68 5.34 15.36 5 14 C3.35 13.67 1.7 13.34 0 13 C-0.19551338 11.39679026 -0.38111983 9.79237014 -0.5625 8.1875 C-0.71912109 6.84751953 -0.71912109 6.84751953 -0.87890625 5.48046875 C-1 3 -1 3 0 0 Z " fill="#074478" transform="translate(267,244)"/>
<path d="M0 0 C0.33 0 0.66 0 1 0 C1 6.6 1 13.2 1 20 C2.29633621 18.93354885 2.29633621 18.93354885 2.0625 16.4375 C2.041875 15.633125 2.02125 14.82875 2 14 C3.32 14 4.64 14 6 14 C6 12.02 6 10.04 6 8 C8.24606427 9.77444972 8.95081002 10.58352485 9.29296875 13.48046875 C9.25816406 14.37378906 9.22335938 15.26710938 9.1875 16.1875 C9.16042969 17.08855469 9.13335937 17.98960937 9.10546875 18.91796875 C9.07066406 19.60503906 9.03585938 20.29210937 9 21 C6.03 21 3.06 21 0 21 C0 14.07 0 7.14 0 0 Z " fill="#2B5C87" transform="translate(203,243)"/>
<path d="M0 0 C0 0.99 0 1.98 0 3 C-0.66 3 -1.32 3 -2 3 C-1.814375 3.886875 -1.62875 4.77375 -1.4375 5.6875 C-1.01957516 8.85178811 -1.19222258 10.94839642 -2 14 C-3.9375 12.9375 -3.9375 12.9375 -6 11 C-6.40047444 8.67724823 -6.7397104 6.34260643 -7 4 C-7.66 3.67 -8.32 3.34 -9 3 C-9 1.68 -9 0.36 -9 -1 C-3.375 -2.25 -3.375 -2.25 0 0 Z " fill="#135588" transform="translate(319,233)"/>
<path d="M0 0 C3.33388318 0.16951948 4.94441987 0.43192871 7.6875 2.1875 C6.9759375 3.2703125 6.9759375 3.2703125 6.25 4.375 C4.74597097 7.08225226 4.12150818 9.14944275 3.6875 12.1875 C2.6975 11.1975 1.7075 10.2075 0.6875 9.1875 C1.3475 8.8575 2.0075 8.5275 2.6875 8.1875 C2.6875 7.5275 2.6875 6.8675 2.6875 6.1875 C0.3775 6.1875 -1.9325 6.1875 -4.3125 6.1875 C-4.355221 4.52138095 -4.35313832 2.85367115 -4.3125 1.1875 C-3.3125 0.1875 -3.3125 0.1875 0 0 Z " fill="#17588D" transform="translate(199.3125,230.8125)"/>
<path d="M0 0 C0.66 0.33 1.32 0.66 2 1 C2 1.66 2 2.32 2 3 C1.01 3.495 1.01 3.495 0 4 C-0.93154626 6.83668535 -0.93154626 6.83668535 -1 10 C0.37168238 12.19038423 0.37168238 12.19038423 2 14 C2 14.99 2 15.98 2 17 C4.64 17 7.28 17 10 17 C9.34 17.66 8.68 18.32 8 19 C4.1705711 18.85549325 1.47988853 18.24504946 -1.9375 16.5 C-4.58446573 13.29155669 -4.64944403 11.26211562 -4.44140625 7.1953125 C-3.80629129 4.03659917 -2.27974955 2.20850738 0 0 Z " fill="#36688C" transform="translate(219,246)"/>
<path d="M0 0 C1.33333333 0.66666667 2.66666667 1.33333333 4 2 C3.67 4.64 3.34 7.28 3 10 C0.36 10 -2.28 10 -5 10 C-4.56802365 5.2482602 -3.67230705 3.07999946 0 0 Z " fill="#0C4B7F" transform="translate(364,233)"/>
<path d="M0 0 C5.6 2.2 5.6 2.2 7 5 C3.125 4.125 3.125 4.125 2 3 C0.65252916 2.76924918 -0.70377565 2.58846937 -2.0625 2.4375 C-3.361875 2.293125 -4.66125 2.14875 -6 2 C-6.33 2.66 -6.66 3.32 -7 4 C-9.93704456 6.0095568 -11.39222485 7 -15 7 C-15.33 8.32 -15.66 9.64 -16 11 C-15.83383414 6.67968759 -15.65309479 4.63676742 -12.5 1.5625 C-8.11585885 -0.39470587 -4.72520419 -0.71721849 0 0 Z " fill="#244C73" transform="translate(296,231)"/>
<path d="M0 0 C0 3.3 0 6.6 0 10 C-2.64 9.67 -5.28 9.34 -8 9 C-8.125 6.125 -8.125 6.125 -8 3 C-5.61366383 0.61366383 -3.39611399 0 0 0 Z " fill="#05447B" transform="translate(399,224)"/>
<path d="M0 0 C0.99 0.33 1.98 0.66 3 1 C3.33 4.3 3.66 7.6 4 11 C1.125 10.75 1.125 10.75 -2 10 C-3.86790938 7.45285085 -4 6.19131 -4 3 C-2.1875 1.25 -2.1875 1.25 0 0 Z " fill="#024B87" transform="translate(282,251)"/>
<path d="M0 0 C2.16147703 1.08073852 3.41039672 2.19363264 5 4 C5 4.66 5 5.32 5 6 C5.99 6 6.98 6 8 6 C8 7.98 8 9.96 8 12 C5.07066405 9.17528319 2.37644966 6.31005488 0 3 C0 2.01 0 1.02 0 0 Z M11 1 C15.875 5.625 15.875 5.625 17 9 C16.01 9.495 16.01 9.495 15 10 C15 9.34 15 8.68 15 8 C13.68 7.67 12.36 7.34 11 7 C11 6.34 11 5.68 11 5 C10.01 5.33 9.02 5.66 8 6 C7.67 5.34 7.34 4.68 7 4 C7.66 3.34 8.32 2.68 9 2 C9.66 2.33 10.32 2.66 11 3 C11 2.34 11 1.68 11 1 Z " fill="#30628A" transform="translate(160,249)"/>
<path d="M0 0 C0 0.66 0 1.32 0 2 C-1.32 2 -2.64 2 -4 2 C-5.76100758 5.40461465 -7 8.09349661 -7 12 C-5.68 12.66 -4.36 13.32 -3 14 C-3 14.66 -3 15.32 -3 16 C-6.81684226 14.44499019 -9.19195732 11.96404505 -12 9 C-10.79618552 6.50638429 -9.54571278 4.31856917 -8 2 C-7.34 2 -6.68 2 -6 2 C-6 1.34 -6 0.68 -6 0 C-3.50907189 -1.24546405 -2.58919267 -0.7767578 0 0 Z " fill="#22517A" transform="translate(61,233)"/>
<path d="M0 0 C0.33 0 0.66 0 1 0 C1 2.97 1 5.94 1 9 C1.99 9.33 2.98 9.66 4 10 C4.33 11.65 4.66 13.3 5 15 C5.99 13.35 6.98 11.7 8 10 C8.99 10.33 9.98 10.66 11 11 C10.34 11 9.68 11 9 11 C9.33 12.65 9.66 14.3 10 16 C9.01 16 8.02 16 7 16 C7 16.66 7 17.32 7 18 C6.01 18 5.02 18 4 18 C4 17.34 4 16.68 4 16 C3.01 16 2.02 16 1 16 C0.67 16.99 0.34 17.98 0 19 C-0.33 17.35 -0.66 15.7 -1 14 C-0.01 13.67 0.98 13.34 2 13 C1.34 12.01 0.68 11.02 0 10 C-0.1953125 7.51953125 -0.1953125 7.51953125 -0.125 4.8125 C-0.10695312 3.91144531 -0.08890625 3.01039063 -0.0703125 2.08203125 C-0.04710937 1.39496094 -0.02390625 0.70789063 0 0 Z " fill="#094375" transform="translate(154,228)"/>
<path d="M0 0 C-0.66 2.64 -1.32 5.28 -2 8 C-4.31 8 -6.62 8 -9 8 C-9.33 7.34 -9.66 6.68 -10 6 C-8.75 2.9375 -8.75 2.9375 -7 0 C-4 -1 -4 -1 0 0 Z " fill="#024A87" transform="translate(225,235)"/>
<path d="M0 0 C1.65 0 3.3 0 5 0 C5.48192771 5.42168675 5.48192771 5.42168675 3.4375 7.875 C0.08586365 9.42190908 -2.34822358 9.39126176 -6 9 C-8.4375 7.625 -8.4375 7.625 -10 6 C-10 5.34 -10 4.68 -10 4 C-8.9790625 4.2165625 -8.9790625 4.2165625 -7.9375 4.4375 C-4.63726918 5.06945909 -1.32855574 5.54313941 2 6 C1.04134491 3.66924071 1.04134491 3.66924071 -2 2 C-1.34 2 -0.68 2 0 2 C0 1.34 0 0.68 0 0 Z " fill="#366183" transform="translate(404,256)"/>
<path d="M0 0 C0.66 0.33 1.32 0.66 2 1 C2 1.66 2 2.32 2 3 C3.32 3.33 4.64 3.66 6 4 C5.030625 4.268125 4.06125 4.53625 3.0625 4.8125 C2.051875 5.204375 1.04125 5.59625 0 6 C-0.33 6.99 -0.66 7.98 -1 9 C-3.64 9 -6.28 9 -9 9 C-8.63030147 6.34385824 -8.29524408 5.25241746 -6.22265625 3.48046875 C-5.50980469 3.05378906 -4.79695313 2.62710938 -4.0625 2.1875 C-3.35222656 1.74792969 -2.64195312 1.30835938 -1.91015625 0.85546875 C-1.27980469 0.57316406 -0.64945312 0.29085937 0 0 Z " fill="#1A5483" transform="translate(288,234)"/>
<path d="M0 0 C0.33 0 0.66 0 1 0 C1 5.28 1 10.56 1 16 C-3.62 16 -8.24 16 -13 16 C-13.33 16.66 -13.66 17.32 -14 18 C-14.99 18 -15.98 18 -17 18 C-16.05275873 15.63189682 -15.34708866 14.24792047 -13.25 12.75 C-10.34480936 11.78160312 -8.04720907 11.74606591 -5 12 C-3.68 12.66 -2.36 13.32 -1 14 C-0.67 9.38 -0.34 4.76 0 0 Z " fill="#295379" transform="translate(266,219)"/>
<path d="M0 0 C0.99 0.33 1.98 0.66 3 1 C0.79157785 3.3537425 -1.44482442 5.67890919 -3.6875 8 C-4.31333984 8.66773438 -4.93917969 9.33546875 -5.58398438 10.0234375 C-6.19951172 10.65507812 -6.81503906 11.28671875 -7.44921875 11.9375 C-8.00955811 12.52402344 -8.56989746 13.11054688 -9.1472168 13.71484375 C-11.54059401 15.37497521 -13.14998181 15.23946139 -16 15 C-16.33 13.68 -16.66 12.36 -17 11 C-14.03 11.495 -14.03 11.495 -11 12 C-10.67 11.34 -10.34 10.68 -10 10 C-9.34 10 -8.68 10 -8 10 C-7.34 8.68 -6.68 7.36 -6 6 C-5.34 6 -4.68 6 -4 6 C-4 5.01 -4 4.02 -4 3 C-2.1875 1.25 -2.1875 1.25 0 0 Z " fill="#2E5A83" transform="translate(86,250)"/>
<path d="M0 0 C0.33 0 0.66 0 1 0 C1.33 6.27 1.66 12.54 2 19 C-2 20 -2 20 -4 19 C-4 17.02 -4 15.04 -4 13 C-3.34 13 -2.68 13 -2 13 C-2.02320313 12.31292969 -2.04640625 11.62585938 -2.0703125 10.91796875 C-2.08835937 10.01691406 -2.10640625 9.11585938 -2.125 8.1875 C-2.14820313 7.29417969 -2.17140625 6.40085938 -2.1953125 5.48046875 C-2 3 -2 3 0 0 Z " fill="#3B6FA1" transform="translate(318,244)"/>
<path d="M0 0 C2.8125 1.375 2.8125 1.375 3.6875 3.5 C3.749375 4.428125 3.749375 4.428125 3.8125 5.375 C2.1625 5.705 0.5125 6.035 -1.1875 6.375 C-1.5175 7.695 -1.8475 9.015 -2.1875 10.375 C-2.8475 8.725 -3.5075 7.075 -4.1875 5.375 C-5.1775 5.87 -5.1775 5.87 -6.1875 6.375 C-6.5175 4.725 -6.8475 3.075 -7.1875 1.375 C-4.40925786 -0.54839841 -3.39528057 -0.66574129 0 0 Z " fill="#245D8A" transform="translate(368.1875,245.625)"/>
<path d="M0 0 C0.33 0 0.66 0 1 0 C1 8.58 1 17.16 1 26 C-0.65 26 -2.3 26 -4 26 C-5 25 -5 25 -5.3125 22.625 C-5 20 -5 20 -3 18.1875 C-2.34 17.795625 -1.68 17.40375 -1 17 C-1.020625 17.969375 -1.04125 18.93875 -1.0625 19.9375 C-1.35618499 22.87465895 -1.35618499 22.87465895 0 24 C0 16.08 0 8.16 0 0 Z " fill="#20588D" transform="translate(354,238)"/>
<path d="M0 0 C1.65 1.32 3.3 2.64 5 4 C1.66666667 7.33333333 -1.66666667 10.66666667 -5 14 C-6 11 -6 11 -5.29296875 9.0625 C-4.74576172 8.0415625 -4.74576172 8.0415625 -4.1875 7 C-3.83042969 6.319375 -3.47335938 5.63875 -3.10546875 4.9375 C-2.14192431 3.24874367 -1.07850549 1.61775824 0 0 Z " fill="#165184" transform="translate(94,236)"/>
<path d="M0 0 C0.99 0 1.98 0 3 0 C3 0.66 3 1.32 3 2 C3.99 2 4.98 2 6 2 C6 2.66 6 3.32 6 4 C5.360625 4.12375 4.72125 4.2475 4.0625 4.375 C3.0415625 4.684375 3.0415625 4.684375 2 5 C0.85345518 7.29308963 0.80270883 8.79909656 0.68359375 11.3515625 C0.64169922 12.20234375 0.59980469 13.053125 0.55664062 13.9296875 C0.51732422 14.81914062 0.47800781 15.70859375 0.4375 16.625 C0.37272461 17.97078125 0.37272461 17.97078125 0.30664062 19.34375 C0.20043139 21.56234283 0.09838806 23.7810488 0 26 C-1.32 25.67 -2.64 25.34 -4 25 C-3.34 24.34 -2.68 23.68 -2 23 C-1.64587926 20.69133597 -1.64587926 20.69133597 -1.62109375 18.02734375 C-1.58693359 17.04572266 -1.55277344 16.06410156 -1.51757812 15.05273438 C-1.49115234 14.02470703 -1.46472656 12.99667969 -1.4375 11.9375 C-1.37782739 9.90482249 -1.31424165 7.87225477 -1.24609375 5.83984375 C-1.22216553 4.93613037 -1.1982373 4.03241699 -1.17358398 3.10131836 C-1 1 -1 1 0 0 Z " fill="#2E5782" transform="translate(431,231)"/>
<path d="M0 0 C1 1 1 1 1.0625 3.5625 C1.041875 4.366875 1.02125 5.17125 1 6 C-0.258125 6.020625 -1.51625 6.04125 -2.8125 6.0625 C-3.52019531 6.07410156 -4.22789062 6.08570313 -4.95703125 6.09765625 C-7 6 -7 6 -10 5 C-10 3 -10 3 -8.9375 1.375 C-6.01093547 -0.70191676 -3.48461949 -0.25811996 0 0 Z " fill="#064983" transform="translate(264,257)"/>
<path d="M0 0 C0 1.98 0 3.96 0 6 C-2.97 6 -5.94 6 -9 6 C-9 4.35 -9 2.7 -9 1 C-6.04335481 -0.4783226 -3.25770263 -0.06032783 0 0 Z " fill="#03558B" transform="translate(330,231)"/>
<path d="M0 0 C2.475 0.99 2.475 0.99 5 2 C5 4.97 5 7.94 5 11 C4.34 11 3.68 11 3 11 C2.34 9.35 1.68 7.7 1 6 C0.34 7.32 -0.32 8.64 -1 10 C-2.23076923 4.58461538 -2.23076923 4.58461538 -1.0625 1.625 C-0.5365625 0.820625 -0.5365625 0.820625 0 0 Z " fill="#024C87" transform="translate(360,249)"/>
<path d="M0 0 C0.99 0.33 1.98 0.66 3 1 C3 4.3 3 7.6 3 11 C2.34 11 1.68 11 1 11 C1 10.34 1 9.68 1 9 C0.01 9.33 -0.98 9.66 -2 10 C-2 8.68 -2 7.36 -2 6 C-2.66 5.67 -3.32 5.34 -4 5 C-3.67 4.34 -3.34 3.68 -3 3 C-2.34 3 -1.68 3 -1 3 C-0.67 2.01 -0.34 1.02 0 0 Z " fill="#054A7F" transform="translate(237,247)"/>
<path d="M0 0 C0.66 0 1.32 0 2 0 C2 1.32 2 2.64 2 4 C3.98 4 5.96 4 8 4 C8 4.33 8 4.66 8 5 C5.69 5.33 3.38 5.66 1 6 C0.0672582 10.099361 -0.28825262 14.12043288 -0.5625 18.3125 C-0.64628906 19.56675781 -0.73007812 20.82101563 -0.81640625 22.11328125 C-0.87699219 23.06589844 -0.93757813 24.01851563 -1 25 C-1.33 25 -1.66 25 -2 25 C-2.19493195 22.72979256 -2.38070418 20.45879711 -2.5625 18.1875 C-2.66691406 16.92292969 -2.77132813 15.65835938 -2.87890625 14.35546875 C-3 11 -3 11 -2 8 C-2.33 7.01 -2.66 6.02 -3 5 C-2.67 4.34 -2.34 3.68 -2 3 C-1.34 3 -0.68 3 0 3 C0 2.01 0 1.02 0 0 Z " fill="#084073" transform="translate(319,233)"/>
<path d="M0 0 C6.0546875 -0.1953125 6.0546875 -0.1953125 8 0 C10 2 10 2 10.23046875 4.86328125 C10.20919922 6.57064453 10.20919922 6.57064453 10.1875 8.3125 C10.17783203 10.00826172 10.17783203 10.00826172 10.16796875 11.73828125 C10.02015783 14.60856308 9.65474022 17.20818772 9 20 C8.67 20 8.34 20 8 20 C8.02320313 19.11957031 8.04640625 18.23914063 8.0703125 17.33203125 C8.08835937 16.17058594 8.10640625 15.00914062 8.125 13.8125 C8.14820313 12.66394531 8.17140625 11.51539063 8.1953125 10.33203125 C8.00484152 7.08259628 7.39360127 4.91339479 6 2 C2.39007621 2.65585189 2.39007621 2.65585189 -1 4 C-0.67 2.68 -0.34 1.36 0 0 Z " fill="#5B7E9A" transform="translate(320,238)"/>
<path d="M0 0 C0.97533063 2.63339271 1.019574 3.92348347 0.3125 6.6875 C-1 9 -1 9 -3.0625 9.625 C-3.701875 9.74875 -4.34125 9.8725 -5 10 C-5.33 10.99 -5.66 11.98 -6 13 C-6.99 12.67 -7.98 12.34 -9 12 C-6.2520787 7.72545575 -3.30749011 3.85873847 0 0 Z " fill="#225985" transform="translate(165,225)"/>
<path d="M0 0 C2.97 0 5.94 0 9 0 C10.32528788 6.09632423 9.46619907 10.97767819 8 17 C7.67 17 7.34 17 7 17 C6.67 12.71 6.34 8.42 6 4 C4.02 4.99 4.02 4.99 2 6 C2 4.68 2 3.36 2 2 C1.34 1.34 0.68 0.68 0 0 Z " fill="#1E608B" transform="translate(146,219)"/>
<path d="M0 0 C0.66 0 1.32 0 2 0 C2 0.99 2 1.98 2 3 C2.99 2.67 3.98 2.34 5 2 C5 7.28 5 12.56 5 18 C4.34 18 3.68 18 3 18 C3 13.38 3 8.76 3 4 C-0.00259517 3.66781808 -0.00259517 3.66781808 -1.6875 5.5 C-2.120625 5.995 -2.55375 6.49 -3 7 C-3.33 6.34 -3.66 5.68 -4 5 C-3.34 4.01 -2.68 3.02 -2 2 C-1.34 2 -0.68 2 0 2 C0 1.34 0 0.68 0 0 Z " fill="#186E9B" transform="translate(237,244)"/>
<path d="M0 0 C-0.33 1.32 -0.66 2.64 -1 4 C-1.66 4 -2.32 4 -3 4 C-2.67 4.99 -2.34 5.98 -2 7 C-1.01 7 -0.02 7 1 7 C1 7.66 1 8.32 1 9 C1.66 9.33 2.32 9.66 3 10 C1.68 10 0.36 10 -1 10 C-1 10.66 -1 11.32 -1 12 C-2.9375 11.1875 -2.9375 11.1875 -5 10 C-6.26339822 6.20980534 -5.49719015 4.62477616 -4 1 C-2 0 -2 0 0 0 Z " fill="#08508C" transform="translate(223,248)"/>
<path d="M0 0 C0.66 0 1.32 0 2 0 C2.103125 0.598125 2.20625 1.19625 2.3125 1.8125 C3.11588948 4.36873926 3.97614952 5.27597922 6 7 C6.598125 7.515625 7.19625 8.03125 7.8125 8.5625 C10.4252236 10.27943265 13.01304728 11.11749124 16 12 C15.67 12.66 15.34 13.32 15 14 C8.14536753 12.49198086 4.00235536 10.00353304 0 4 C0 2.68 0 1.36 0 0 Z " fill="#EEC24B" transform="translate(31,276)"/>
<path d="M0 0 C0.33 0 0.66 0 1 0 C1.19585353 3.97880228 1.3802867 7.95805156 1.5625 11.9375 C1.61857422 13.07380859 1.67464844 14.21011719 1.73242188 15.38085938 C1.78076172 16.46044922 1.82910156 17.54003906 1.87890625 18.65234375 C1.9260376 19.65257568 1.97316895 20.65280762 2.02172852 21.68334961 C2 24 2 24 1 25 C-1.33297433 25.04092937 -3.66705225 25.04241723 -6 25 C-6.33 24.34 -6.66 23.68 -7 23 C-2.25 21.875 -2.25 21.875 0 23 C0 15.41 0 7.82 0 0 Z " fill="#4B7A9E" transform="translate(384,239)"/>
<path d="M0 0 C2.125 0.375 2.125 0.375 4 1 C4.33 2.65 4.66 4.3 5 6 C1.68955197 7.10348268 -0.65506316 6.99444068 -4 6 C-4.33 5.34 -4.66 4.68 -5 4 C-4.01 3.34 -3.02 2.68 -2 2 C-1.34 1.34 -0.68 0.68 0 0 Z " fill="#1C4F8D" transform="translate(301,257)"/>
<path d="M0 0 C0.66 0.99 1.32 1.98 2 3 C1.01 3.66 0.02 4.32 -1 5 C-2.09999468 6.6540731 -2.09999468 6.6540731 -3 8.5 C-4.4892513 11.42886089 -5.08346237 12.05564158 -8 14 C-8 13.01 -8 12.02 -8 11 C-8.66 10.67 -9.32 10.34 -10 10 C-9.278125 9.46375 -8.55625 8.9275 -7.8125 8.375 C-4.752158 5.7907112 -2.48779989 3.12751986 0 0 Z " fill="#1A4D81" transform="translate(90,230)"/>
<path d="M0 0 C2.31 0 4.62 0 7 0 C7.33 1.98 7.66 3.96 8 6 C5.69 6 3.38 6 1 6 C0.67 5.34 0.34 4.68 0 4 C0.66 4 1.32 4 2 4 C2 3.34 2 2.68 2 2 C1.34 2 0.68 2 0 2 C0 1.34 0 0.68 0 0 Z " fill="#0A4578" transform="translate(400,233)"/>
<path d="M0 0 C1.32 0.33 2.64 0.66 4 1 C3.51917969 1.53109375 3.03835938 2.0621875 2.54296875 2.609375 C0.61619553 5.59465402 0.5041576 7.72350016 0.3125 11.25 C0.21388672 12.86648437 0.21388672 12.86648437 0.11328125 14.515625 C0.07589844 15.33546875 0.03851563 16.1553125 0 17 C-2.88133993 14.11866007 -2.70372872 11.44018259 -3.046875 7.48828125 C-2.98654088 4.28554528 -2.03571626 2.44285952 0 0 Z " fill="#3F6B91" transform="translate(254,238)"/>
<path d="M0 0 C4 0 4 0 5.75 1.625 C7.30380397 4.57722754 7.22432841 6.70985003 7 10 C6.01 10 5.02 10 4 10 C2.64560332 7.29120665 2.93498549 4.99066732 3 2 C2.34 2 1.68 2 1 2 C0.67 2.99 0.34 3.98 0 5 C0 3.35 0 1.7 0 0 Z " fill="#0C518A" transform="translate(266,242)"/>
<path d="M0 0 C3.71888239 0.50712033 6.73454239 1.11608215 10 3 C10 3.66 10 4.32 10 5 C8.68 5.33 7.36 5.66 6 6 C6 5.34 6 4.68 6 4 C3.03 4 0.06 4 -3 4 C-2.01 2.68 -1.02 1.36 0 0 Z " fill="#034C89" transform="translate(342,233)"/>
<path d="M0 0 C2.3828125 -0.29296875 2.3828125 -0.29296875 5.125 -0.1875 C6.03507813 -0.16042969 6.94515625 -0.13335937 7.8828125 -0.10546875 C8.58148438 -0.07066406 9.28015625 -0.03585938 10 0 C8.25 4.875 8.25 4.875 6 6 C6 5.01 6 4.02 6 3 C3.36 3 0.72 3 -2 3 C-1.34 2.01 -0.68 1.02 0 0 Z " fill="#376387" transform="translate(170,219)"/>
<path d="M0 0 C-0.5 2.375 -0.5 2.375 -2 5 C-4.66525288 6.08241903 -7.1407915 6.49272107 -10 7 C-6.75789474 0.28421053 -6.75789474 0.28421053 -4 -0.75 C-2 -1 -2 -1 0 0 Z " fill="#044781" transform="translate(63,235)"/>
<path d="M0 0 C1.11375 0.3403125 1.11375 0.3403125 2.25 0.6875 C1.92 1.6775 1.59 2.6675 1.25 3.6875 C3.23 3.6875 5.21 3.6875 7.25 3.6875 C6.26 5.1725 6.26 5.1725 5.25 6.6875 C1.625 7.375 1.625 7.375 -1.75 7.6875 C-1.09 6.0375 -0.43 4.3875 0.25 2.6875 C-2.06 2.6875 -4.37 2.6875 -6.75 2.6875 C-4.29511132 0.41445492 -3.41240272 -0.38777304 0 0 Z " fill="#265F89" transform="translate(224.75,232.3125)"/>
<path d="M0 0 C6.36 0.6 6.36 0.6 9 2.25 C10 4 10 4 9.6875 6.6875 C9.460625 7.450625 9.23375 8.21375 9 9 C8.01 9 7.02 9 6 9 C6.33 7.35 6.66 5.7 7 4 C6.34 4 5.68 4 5 4 C5 3.34 5 2.68 5 2 C3.02 2 1.04 2 -1 2 C-0.67 1.34 -0.34 0.68 0 0 Z " fill="#3E6487" transform="translate(102,218)"/>
<path d="M0 0 C0.33 0 0.66 0 1 0 C1.66 5.94 2.32 11.88 3 18 C1.68 18.33 0.36 18.66 -1 19 C-1.33 18.34 -1.66 17.68 -2 17 C-1.34 17 -0.68 17 0 17 C-0.24363281 16.18402344 -0.24363281 16.18402344 -0.4921875 15.3515625 C-1.07828249 12.63749185 -1.13248081 10.15037987 -1.125 7.375 C-1.12757813 6.41335937 -1.13015625 5.45171875 -1.1328125 4.4609375 C-1 2 -1 2 0 0 Z " fill="#124A7D" transform="translate(335,245)"/>
<path d="M0 0 C0.66 0.99 1.32 1.98 2 3 C1.01 4.485 1.01 4.485 0 6 C0.33 6.99 0.66 7.98 1 9 C-0.375 10.5 -0.375 10.5 -2 12 C-2.66 12 -3.32 12 -4 12 C-4.625 10.1875 -4.625 10.1875 -5 8 C-4.34 7.01 -3.68 6.02 -3 5 C-2.649375 4.29875 -2.29875 3.5975 -1.9375 2.875 C-1 1 -1 1 0 0 Z " fill="#245782" transform="translate(340,231)"/>
<path d="M0 0 C0.99 0.33 1.98 0.66 3 1 C1.95285076 2.32477959 0.88655331 3.63443746 -0.1875 4.9375 C-0.77917969 5.66839844 -1.37085937 6.39929688 -1.98046875 7.15234375 C-4.32505203 9.29738803 -5.88391498 9.66094412 -9 10 C-8.06409496 8.8944811 -7.12620142 7.79064547 -6.1875 6.6875 C-5.66542969 6.07261719 -5.14335938 5.45773438 -4.60546875 4.82421875 C-3.12827531 3.14575321 -1.59960869 1.56117966 0 0 Z " fill="#22517A" transform="translate(100,220)"/>
<path d="M0 0 C7.42857143 -0.28571429 7.42857143 -0.28571429 11 2 C9.26043342 3.73956658 6.8063378 3.37190386 4.4375 3.5625 C2.91962891 3.68818359 2.91962891 3.68818359 1.37109375 3.81640625 C0.58863281 3.87699219 -0.19382813 3.93757812 -1 4 C-0.67 2.68 -0.34 1.36 0 0 Z " fill="#2D587C" transform="translate(196,231)"/>
<path d="M0 0 C1.65 0 3.3 0 5 0 C5.25 2.3125 5.25 2.3125 5 5 C3 6.8125 3 6.8125 1 8 C0.26919734 6.02253397 -0.39421747 4.01927511 -1 2 C-0.67 1.34 -0.34 0.68 0 0 Z " fill="#185789" transform="translate(171,222)"/>
<path d="M0 0 C0 0.66 0 1.32 0 2 C0.66 2.33 1.32 2.66 2 3 C1.34 3.66 0.68 4.32 0 5 C-3.84177074 4.69670231 -6.09427672 3.47524576 -9 1 C-2.25 -1.125 -2.25 -1.125 0 0 Z " fill="#0E4576" transform="translate(233,257)"/>
<path d="M0 0 C0.99 0.33 1.98 0.66 3 1 C3.02687279 2.81242052 3.04633715 4.62495233 3.0625 6.4375 C3.07410156 7.44683594 3.08570313 8.45617187 3.09765625 9.49609375 C3 12 3 12 2 13 C0.00041636 13.04080783 -2.00045254 13.04254356 -4 13 C-2.71034824 11.62437146 -1.37310707 10.29233607 0 9 C0.66 9 1.32 9 2 9 C1.34 6.03 0.68 3.06 0 0 Z " fill="#0C4471" transform="translate(231,237)"/>
<path d="M0 0 C3.7935068 -0.35288435 5.55941253 -0.28393415 8.8125 1.8125 C11 4 11 4 12 7 C11.34 7 10.68 7 10 7 C10 6.34 10 5.68 10 5 C6.37 4.01 2.74 3.02 -1 2 C-0.67 1.34 -0.34 0.68 0 0 Z " fill="#1E496E" transform="translate(342,231)"/>
<path d="M0 0 C0.9075 0.53625 1.815 1.0725 2.75 1.625 C2.75 2.285 2.75 2.945 2.75 3.625 C-3.875 3.75 -3.875 3.75 -7.25 2.625 C-7.25 1.965 -7.25 1.305 -7.25 0.625 C-4.22502149 -1.58556122 -3.57040661 -1.51055664 0 0 Z " fill="#024B89" transform="translate(403.25,258.375)"/>
<path d="M0 0 C3.73764507 1.86882253 5.23916443 6.34287996 7 10 C6.34 10 5.68 10 5 10 C5 9.34 5 8.68 5 8 C2.69 8 0.38 8 -2 8 C-2 7.01 -2 6.02 -2 5 C-1.34 4.67 -0.68 4.34 0 4 C0 2.68 0 1.36 0 0 Z " fill="#2D628C" transform="translate(163,239)"/>
<path d="M0 0 C3.41459045 0.25293263 4.24795319 1.25948589 6.6875 3.8125 C9.64029666 7.88257108 9.64029666 7.88257108 10 11 C5.97449681 9.6581656 5.11714364 7.5772427 3 4 C3 3.34 3 2.68 3 2 C2.01 2 1.02 2 0 2 C0 1.34 0 0.68 0 0 Z " fill="#F1C750" transform="translate(118,197)"/>
<path d="M0 0 C4.42857143 5.14285714 4.42857143 5.14285714 5 9 C3.02 8.34 1.04 7.68 -1 7 C-1.33 5.02 -1.66 3.04 -2 1 C-1.34 0.67 -0.68 0.34 0 0 Z " fill="#124879" transform="translate(280,253)"/>
<path d="M0 0 C0.99 1.32 1.98 2.64 3 4 C1.02 4.99 1.02 4.99 -1 6 C-1.33 5.34 -1.66 4.68 -2 4 C-2.66 4 -3.32 4 -4 4 C-4.33 5.32 -4.66 6.64 -5 8 C-5.99 7.34 -6.98 6.68 -8 6 C-7.34 6 -6.68 6 -6 6 C-6 5.01 -6 4.02 -6 3 C-5.195625 2.87625 -4.39125 2.7525 -3.5625 2.625 C-2.716875 2.41875 -1.87125 2.2125 -1 2 C-0.67 1.34 -0.34 0.68 0 0 Z " fill="#13578D" transform="translate(270,233)"/>
<path d="M0 0 C0.99 0.33 1.98 0.66 3 1 C4.56118428 1.06740865 6.1250252 1.08514456 7.6875 1.0625 C8.49574219 1.05347656 9.30398438 1.04445313 10.13671875 1.03515625 C10.75160156 1.02355469 11.36648438 1.01195312 12 1 C12.33 1.99 12.66 2.98 13 4 C7.80310881 5.14507772 7.80310881 5.14507772 5 5 C2 2.5625 2 2.5625 0 0 Z " fill="#2E5F82" transform="translate(414,260)"/>
<path d="M0 0 C1.98 0.99 1.98 0.99 4 2 C4 2.99 4 3.98 4 5 C6.64 5 9.28 5 12 5 C11.34 5.66 10.68 6.32 10 7 C5.86169011 6.69903201 3.48152976 6.32101984 0 4 C0 2.68 0 1.36 0 0 Z " fill="#2D6184" transform="translate(217,258)"/>
<path d="M0 0 C1.32 0.33 2.64 0.66 4 1 C4 3.31 4 5.62 4 8 C-0.75 9 -0.75 9 -3 9 C-3.33 8.01 -3.66 7.02 -4 6 C-1.69 6 0.62 6 3 6 C2.65555119 3.52733235 2.65555119 3.52733235 2 1 C1.34 0.67 0.68 0.34 0 0 Z " fill="#275A84" transform="translate(294,238)"/>
<path d="M0 0 C0 3.3 0 6.6 0 10 C-0.33 10 -0.66 10 -1 10 C-1.33 7.69 -1.66 5.38 -2 3 C-4.31 3.66 -6.62 4.32 -9 5 C-8.67 3.68 -8.34 2.36 -8 1 C-2.25 0 -2.25 0 0 0 Z " fill="#406987" transform="translate(400,222)"/>
<path d="M0 0 C0.66 1.32 1.32 2.64 2 4 C2 3.01 2 2.02 2 1 C2.66 1.33 3.32 1.66 4 2 C3.67 3.32 3.34 4.64 3 6 C1.02 6 -0.96 6 -3 6 C-2.625 3.5625 -2.625 3.5625 -2 1 C-1.34 0.67 -0.68 0.34 0 0 Z " fill="#1C4B89" transform="translate(448,258)"/>
<path d="M0 0 C2.0625 1.6875 2.0625 1.6875 4 4 C3.75 6.75 3.75 6.75 3 9 C2.01 9 1.02 9 0 9 C0 6.03 0 3.06 0 0 Z " fill="#114B79" transform="translate(245,246)"/>
<path d="M0 0 C0.33 0.66 0.66 1.32 1 2 C0.67 2.99 0.34 3.98 0 5 C1.98 4.34 3.96 3.68 6 3 C6 4.32 6 5.64 6 7 C3.36 7 0.72 7 -2 7 C-1.125 1.125 -1.125 1.125 0 0 Z " fill="#2A5D7D" transform="translate(361,236)"/>
<path d="M0 0 C0.99 0.33 1.98 0.66 3 1 C1.64978174 5.41889613 -0.26115668 7.34345343 -4 10 C-3.29445932 6.33118845 -1.72264494 3.29549466 0 0 Z " fill="#4B6D87" transform="translate(468,231)"/>
<path d="M0 0 C2.5 1.8125 2.5 1.8125 5 4 C5 4.99 5 5.98 5 7 C1.7 7 -1.6 7 -5 7 C-5 6.34 -5 5.68 -5 5 C-3.02 4.67 -1.04 4.34 1 4 C0.67 2.68 0.34 1.36 0 0 Z " fill="#2F5D7A" transform="translate(467,257)"/>
<path d="M0 0 C2.97 0.33 5.94 0.66 9 1 C9 1.66 9 2.32 9 3 C5.01803543 4.05404945 2.01804691 3.84098656 -2 3 C-1.34 2.01 -0.68 1.02 0 0 Z " fill="#426C93" transform="translate(365,261)"/>
<path d="M0 0 C2.64 0 5.28 0 8 0 C8.77842938 3.40562852 9.09978121 6.50765756 9 10 C8.34 10 7.68 10 7 10 C7 7.36 7 4.72 7 2 C4.69 1.67 2.38 1.34 0 1 C0 0.67 0 0.34 0 0 Z " fill="#417692" transform="translate(443,219)"/>
<path d="M0 0 C-0.45375 0.5775 -0.9075 1.155 -1.375 1.75 C-2.84113516 3.7800333 -3.94857784 5.73539843 -5 8 C-5.66 5.36 -6.32 2.72 -7 0 C-4.3333581 -1.33332095 -2.83319697 -0.67102033 0 0 Z " fill="#F3C12C" transform="translate(46,205)"/>
<path d="M0 0 C2.64 0 5.28 0 8 0 C8 0.66 8 1.32 8 2 C8.66 2.66 9.32 3.32 10 4 C6.6868604 5.04127245 5.39801692 5.18574123 2.1875 3.6875 C1.465625 3.130625 0.74375 2.57375 0 2 C0 1.34 0 0.68 0 0 Z " fill="#0B4473" transform="translate(288,257)"/>
<path d="M0 0 C0.33 1.32 0.66 2.64 1 4 C2.32 4 3.64 4 5 4 C5.33 3.34 5.66 2.68 6 2 C6.33 2.66 6.66 3.32 7 4 C6.67 4.66 6.34 5.32 6 6 C3.69 6 1.38 6 -1 6 C-1.33 5.34 -1.66 4.68 -2 4 C-1.0625 1.875 -1.0625 1.875 0 0 Z " fill="#204E74" transform="translate(217,237)"/>
<path d="M0 0 C0.33 0 0.66 0 1 0 C1 6.27 1 12.54 1 19 C-0.32 18.67 -1.64 18.34 -3 18 C-2.34 17.34 -1.68 16.68 -1 16 C-0.6936141 13.26565038 -0.4886664 10.61720179 -0.375 7.875 C-0.33632813 7.12089844 -0.29765625 6.36679688 -0.2578125 5.58984375 C-0.16348969 3.72696816 -0.08065338 1.86351745 0 0 Z " fill="#507393" transform="translate(430,238)"/>
<path d="M0 0 C-1.4001116 2.8002232 -3.26572551 3.56776098 -6 5 C-6.99 5 -7.98 5 -9 5 C-9.33 6.32 -9.66 7.64 -10 9 C-10 7.35 -10 5.7 -10 4 C-3.375 0 -3.375 0 0 0 Z " fill="#084476" transform="translate(290,233)"/>
<path d="M0 0 C0.33 0.99 0.66 1.98 1 3 C2.65 3 4.3 3 6 3 C6 2.34 6 1.68 6 1 C6.66 1 7.32 1 8 1 C8.33 1.99 8.66 2.98 9 4 C5.30458414 4.95024979 2.69541586 4.95024979 -1 4 C-0.67 2.68 -0.34 1.36 0 0 Z " fill="#355996" transform="translate(184,259)"/>
<path d="M0 0 C0.99 0.33 1.98 0.66 3 1 C2.34 1 1.68 1 1 1 C1.33 2.65 1.66 4.3 2 6 C1.01 6 0.02 6 -1 6 C-1 6.66 -1 7.32 -1 8 C-1.99 8 -2.98 8 -4 8 C-2.99983813 4.9995144 -1.6627026 2.67478244 0 0 Z " fill="#05487E" transform="translate(162,238)"/>
<path d="M0 0 C2.64 0.66 5.28 1.32 8 2 C8 2.99 8 3.98 8 5 C8.66 5 9.32 5 10 5 C10 5.66 10 6.32 10 7 C8.35 6.67 6.7 6.34 5 6 C5 5.34 5 4.68 5 4 C2.525 3.01 2.525 3.01 0 2 C0 1.34 0 0.68 0 0 Z " fill="#0C3F6F" transform="translate(366,256)"/>
<path d="M0 0 C0.99 0.33 1.98 0.66 3 1 C2.67 2.65 2.34 4.3 2 6 C0.68 6.33 -0.64 6.66 -2 7 C-1.34 4.69 -0.68 2.38 0 0 Z " fill="#1E4E77" transform="translate(312,257)"/>
<path d="M0 0 C0 1.32 0 2.64 0 4 C-2.64 3.34 -5.28 2.68 -8 2 C-8 1.34 -8 0.68 -8 0 C-5.13822943 -1.43088528 -3.06624227 -0.59991697 0 0 Z " fill="#0D4673" transform="translate(348,237)"/>
<path d="M0 0 C0 1.32 0 2.64 0 4 C-2.31 4 -4.62 4 -7 4 C-7 3.01 -7 2.02 -7 1 C-4 0 -4 0 0 0 Z " fill="#0A588C" transform="translate(418,234)"/>
<path d="M0 0 C2.00720923 0.28674418 4.0085944 0.61866701 6 1 C5.67 1.99 5.34 2.98 5 4 C3.35 4 1.7 4 0 4 C-0.33 3.01 -0.66 2.02 -1 1 C-0.67 0.67 -0.34 0.34 0 0 Z " fill="#024B88" transform="translate(420,258)"/>
<path d="M0 0 C0.4125 0.61875 0.825 1.2375 1.25 1.875 C3.05573879 4.06768281 4.4090534 4.92788417 7 6 C3.71023192 7.09658936 2.28696233 6.79953138 -1 6 C-0.67 4.02 -0.34 2.04 0 0 Z " fill="#35628A" transform="translate(420,252)"/>
<path d="M0 0 C2.33294775 -0.04241723 4.66702567 -0.04092937 7 0 C8 1 8 1 8.0625 3.5625 C8.041875 4.366875 8.02125 5.17125 8 6 C7.01 5.67 6.02 5.34 5 5 C5 4.34 5 3.68 5 3 C3.35 2.67 1.7 2.34 0 2 C0 1.34 0 0.68 0 0 Z " fill="#064271" transform="translate(257,257)"/>
<path d="M0 0 C2.50037734 2.17424117 3.43628586 3.73045798 4 7 C2.68 7.33 1.36 7.66 0 8 C-1.09658936 4.71023192 -0.79953138 3.28696233 0 0 Z " fill="#1A5489" transform="translate(360,254)"/>
<path d="M0 0 C1.32 0.66 2.64 1.32 4 2 C4 3.65 4 5.3 4 7 C3.34 7 2.68 7 2 7 C2 6.01 2 5.02 2 4 C1.01 3.67 0.02 3.34 -1 3 C-0.67 2.01 -0.34 1.02 0 0 Z " fill="#024B85" transform="translate(455,244)"/>
<path d="M0 0 C0.33 1.32 0.66 2.64 1 4 C-1.97 6.475 -1.97 6.475 -5 9 C-5.66 8.67 -6.32 8.34 -7 8 C-4.69 5.36 -2.38 2.72 0 0 Z " fill="#2B557A" transform="translate(461,232)"/>
<path d="M0 0 C0.99 0.33 1.98 0.66 3 1 C2.67 2.32 2.34 3.64 2 5 C2.99 5 3.98 5 5 5 C5 5.66 5 6.32 5 7 C3.35 7 1.7 7 0 7 C0 4.69 0 2.38 0 0 Z " fill="#58778D" transform="translate(386,232)"/>
<path d="M0 0 C0.66 0 1.32 0 2 0 C1.5206753 4.31392226 0.2542015 6.16569547 -3 9 C-2.30058404 5.85262818 -1.23921302 2.97411124 0 0 Z " fill="#2B5D8A" transform="translate(102,230)"/>
<path d="M0 0 C-0.33 0.99 -0.66 1.98 -1 3 C-3.31 3 -5.62 3 -8 3 C-8.33 2.34 -8.66 1.68 -9 1 C-5.8035914 -0.06546953 -3.34252724 -0.07427838 0 0 Z " fill="#316497" transform="translate(386,261)"/>
<path d="M0 0 C2.5654594 2.5654594 2.54046087 4.47686668 3 8 C2.34 8 1.68 8 1 8 C-1.29648649 5.4385343 -2 4.52032428 -2 1 C-1.34 0.67 -0.68 0.34 0 0 Z " fill="#3D6B94" transform="translate(62,250)"/>
<path d="M0 0 C1.98 0 3.96 0 6 0 C5.67 1.32 5.34 2.64 5 4 C3.68 4 2.36 4 1 4 C0.67 2.68 0.34 1.36 0 0 Z " fill="#164A79" transform="translate(310,232)"/>
<path d="M0 0 C2.475 0.495 2.475 0.495 5 1 C5.33 1.99 5.66 2.98 6 4 C4.35 4 2.7 4 1 4 C0.67 2.68 0.34 1.36 0 0 Z " fill="#2A557B" transform="translate(69,261)"/>
<path d="M0 0 C1.98 0.99 1.98 0.99 4 2 C4 3.32 4 4.64 4 6 C2.68 5.67 1.36 5.34 0 5 C0 3.35 0 1.7 0 0 Z " fill="#044C85" transform="translate(267,252)"/>
<path d="M0 0 C1.98 0 3.96 0 6 0 C6 1.32 6 2.64 6 4 C4.68 4.33 3.36 4.66 2 5 C2 3.68 2 2.36 2 1 C1.34 0.67 0.68 0.34 0 0 Z " fill="#02558B" transform="translate(233,252)"/>
<path d="M0 0 C0.66 0 1.32 0 2 0 C2 0.99 2 1.98 2 3 C1.34 3 0.68 3 0 3 C0 5.31 0 7.62 0 10 C-0.66 9.34 -1.32 8.68 -2 8 C-1.42307692 1.42307692 -1.42307692 1.42307692 0 0 Z " fill="#133F69" transform="translate(360,249)"/>
<path d="M0 0 C2 1.0625 2 1.0625 4 3 C4.25 6.6875 4.25 6.6875 4 10 C3.67 10 3.34 10 3 10 C3 8.02 3 6.04 3 4 C1.02 3.34 -0.96 2.68 -3 2 C-2.01 1.34 -1.02 0.68 0 0 Z " fill="#0E4773" transform="translate(206,233)"/>
<path d="M0 0 C0.66 0 1.32 0 2 0 C2 0.66 2 1.32 2 2 C2.66 2.33 3.32 2.66 4 3 C4.625 5.0625 4.625 5.0625 5 7 C2 6 2 6 0 3 C0 2.01 0 1.02 0 0 Z " fill="#476B8F" transform="translate(246,255)"/>
<path d="M0 0 C1.9375 0.8125 1.9375 0.8125 4 2 C4.33 2.99 4.66 3.98 5 5 C4.01 5.495 4.01 5.495 3 6 C3 5.34 3 4.68 3 4 C1.68 3.67 0.36 3.34 -1 3 C-0.67 2.01 -0.34 1.02 0 0 Z " fill="#3C6990" transform="translate(172,253)"/>
<path d="M0 0 C3.16115776 1.36983503 3.9927092 1.9890638 6 5 C3.37886292 5 1.49064888 4.68707555 -1 4 C-0.67 2.68 -0.34 1.36 0 0 Z " fill="#1F527E" transform="translate(66,240)"/>
<path d="M0 0 C0.99 0 1.98 0 3 0 C3 0.66 3 1.32 3 2 C3.66 2.33 4.32 2.66 5 3 C5.625 5.0625 5.625 5.0625 6 7 C5.34 7 4.68 7 4 7 C0 2.52941176 0 2.52941176 0 0 Z " fill="#01508D" transform="translate(375,234)"/>
<path d="M0 0 C1.98 0 3.96 0 6 0 C6 0.66 6 1.32 6 2 C3.69 2.33 1.38 2.66 -1 3 C-0.67 2.01 -0.34 1.02 0 0 Z " fill="#164E70" transform="translate(323,231)"/>
<path d="M0 0 C0.66 0 1.32 0 2 0 C2 0.99 2 1.98 2 3 C2.66 3 3.32 3 4 3 C3.67 4.65 3.34 6.3 3 8 C0.9375 5.6875 0.9375 5.6875 -1 3 C-0.67 2.01 -0.34 1.02 0 0 Z " fill="#054A7D" transform="translate(166,225)"/>
<path d="M0 0 C0.99 0 1.98 0 3 0 C3 1.98 3 3.96 3 6 C2.01 6 1.02 6 0 6 C0 4.02 0 2.04 0 0 Z " fill="#094473" transform="translate(426,257)"/>
<path d="M0 0 C2 1.8125 2 1.8125 4 4 C4 4.99 4 5.98 4 7 C3.34 7 2.68 7 2 7 C2 6.01 2 5.02 2 4 C1.01 4 0.02 4 -1 4 C-0.67 2.68 -0.34 1.36 0 0 Z " fill="#3E698E" transform="translate(237,233)"/>
<path d="M0 0 C-0.33 0.99 -0.66 1.98 -1 3 C-3.31 2.67 -5.62 2.34 -8 2 C-6.14210462 -1.71579076 -3.44525918 -1.06921837 0 0 Z " fill="#0E4B7D" transform="translate(225,235)"/>
</svg>
